<svg xmlns="http://www.w3.org/2000/svg" width="64" height="64" viewBox="0 0 64 64"><g fill="none" fill-rule="evenodd"><rect width="64" height="64" fill="#F6F5F9"/><g fill-rule="nonzero" transform="translate(2 17.906)"><polygon fill="#9BE6F2" points="0 0 43.243 0 43.243 6.607 0 6.607"/><polygon fill="#6979D1" points="0 9.91 51.832 9.91 51.832 16.517 0 16.517"/><polygon fill="#FFB700" points="0 19.82 20.3 19.82 20.3 26.426 0 26.426"/><path fill="#FFF" stroke="#1D1D1B" stroke-width=".2" d="M43.3033033,0.0600600601 L60,0.0600600601 L60,6.54654655 L43.3033033,6.54654655 L43.3033033,0.0600600601 Z M51.8918919,9.96996997 L60,9.96996997 L60,16.4564565 L51.8918919,16.4564565 L51.8918919,9.96996997 Z M20.3603604,19.8798799 L60,19.8798799 L60,26.3663664 L20.3603604,26.3663664 L20.3603604,19.8798799 Z" opacity=".989"/></g></g></svg>