<svg xmlns="http://www.w3.org/2000/svg" xmlns:xlink="http://www.w3.org/1999/xlink" width="1200" zoomAndPan="magnify" viewBox="0 0 900 472.499986" height="630" preserveAspectRatio="xMidYMid meet" version="1.0"><defs><filter x="0%" y="0%" width="100%" height="100%" id="642e7e32de"><feColorMatrix values="0 0 0 0 1 0 0 0 0 1 0 0 0 0 1 0 0 0 1 0" color-interpolation-filters="sRGB"/></filter><clipPath id="cc221f0852"><path d="M 0.476562 0 L 899.523438 0 L 899.523438 472 L 0.476562 472 Z M 0.476562 0 " clip-rule="nonzero"/></clipPath><clipPath id="02f60e417c"><path d="M 0.476562 0 L 899.523438 0 L 899.523438 472 L 0.476562 472 Z M 0.476562 0 " clip-rule="nonzero"/></clipPath><mask id="fc9aeec5dd"><g filter="url(#642e7e32de)"><rect x="-90" width="1080" fill="#000000" y="-47.249999" height="566.999983" fill-opacity="0.989"/></g></mask><clipPath id="e64d027e58"><rect x="0" width="193" y="0" height="130"/></clipPath><clipPath id="9b93fee0ee"><path d="M 306.082031 103.777344 L 514 103.777344 L 514 136 L 306.082031 136 Z M 306.082031 103.777344 " clip-rule="nonzero"/></clipPath><clipPath id="b56d70a2ef"><path d="M 306.082031 151 L 555 151 L 555 183 L 306.082031 183 Z M 306.082031 151 " clip-rule="nonzero"/></clipPath><clipPath id="f75b1c9569"><path d="M 306.082031 198 L 404 198 L 404 230.394531 L 306.082031 230.394531 Z M 306.082031 198 " clip-rule="nonzero"/></clipPath><clipPath id="68260dc92c"><path d="M 513 103.777344 L 593.777344 103.777344 L 593.777344 136 L 513 136 Z M 513 103.777344 " clip-rule="nonzero"/></clipPath><clipPath id="3e316e9de8"><path d="M 554 151 L 593.777344 151 L 593.777344 183 L 554 183 Z M 554 151 " clip-rule="nonzero"/></clipPath><clipPath id="357c92f00b"><path d="M 403 198 L 593.777344 198 L 593.777344 230.394531 L 403 230.394531 Z M 403 198 " clip-rule="nonzero"/></clipPath></defs><g clip-path="url(#cc221f0852)"><path fill="#ffffff" d="M 0.476562 0 L 899.523438 0 L 899.523438 472 L 0.476562 472 Z M 0.476562 0 " fill-opacity="1" fill-rule="nonzero"/><path fill="#ffffff" d="M 0.476562 0 L 899.523438 0 L 899.523438 472 L 0.476562 472 Z M 0.476562 0 " fill-opacity="1" fill-rule="nonzero"/><path fill="#f6f5f9" d="M 0.476562 0 L 899.523438 0 L 899.523438 472 L 0.476562 472 Z M 0.476562 0 " fill-opacity="1" fill-rule="evenodd"/></g><path fill="#f6f5f9" d="M 4.222656 3.746094 L 895.777344 3.746094 L 895.777344 468.253906 L 4.222656 468.253906 Z M 4.222656 3.746094 " fill-opacity="1" fill-rule="evenodd"/><g clip-path="url(#02f60e417c)"><path stroke-linecap="butt" transform="matrix(0.749207, 0, 0, 0.749207, 0.475701, 0)" fill="none" stroke-linejoin="miter" d="M 5.001228 5.000078 L 1194.998822 5.000078 L 1194.998822 624.999262 L 5.001228 624.999262 Z M 5.001228 5.000078 " stroke="#43398c" stroke-width="10" stroke-opacity="1" stroke-miterlimit="4"/></g><path fill="#9be6f2" d="M 306.261719 103.765625 L 513.453125 103.765625 L 513.453125 135.417969 L 306.261719 135.417969 Z M 306.261719 103.765625 " fill-opacity="1" fill-rule="nonzero"/><path fill="#6979d1" d="M 306.261719 151.246094 L 554.601562 151.246094 L 554.601562 182.898438 L 306.261719 182.898438 Z M 306.261719 151.246094 " fill-opacity="1" fill-rule="nonzero"/><path fill="#ffb700" d="M 306.261719 198.726562 L 403.527344 198.726562 L 403.527344 230.382812 L 306.261719 230.382812 Z M 306.261719 198.726562 " fill-opacity="1" fill-rule="nonzero"/><g mask="url(#fc9aeec5dd)"><g transform="matrix(1, 0, 0, 1, 402, 102)"><g clip-path="url(#e64d027e58)"><path stroke-linecap="butt" transform="matrix(0.749207, 0, 0, 0.749207, -95.737661, 1.765188)" fill-opacity="1" fill="#ffffff" fill-rule="nonzero" stroke-linejoin="miter" d="M 276.927345 0.386408 L 383.706894 0.386408 L 383.706894 41.86776 L 276.927345 41.86776 Z M 331.855204 63.760696 L 383.706894 63.760696 L 383.706894 105.242048 L 331.855204 105.242048 Z M 130.204528 127.134984 L 383.706894 127.134984 L 383.706894 168.616336 L 130.204528 168.616336 Z M 130.204528 127.134984 " stroke="#1d1d1b" stroke-width="0.2" stroke-opacity="1" stroke-miterlimit="4"/></g></g></g><path fill="#43398c" d="M 85.945312 353.320312 C 82.484375 353.320312 79.441406 352.523438 76.8125 350.929688 C 74.183594 349.339844 72.132812 347.109375 70.664062 344.246094 C 69.195312 341.378906 68.460938 338.046875 68.460938 334.25 C 68.460938 330.417969 69.195312 327.070312 70.664062 324.203125 C 72.132812 321.339844 74.183594 319.109375 76.8125 317.519531 C 79.441406 315.925781 82.484375 315.128906 85.945312 315.128906 C 89.457031 315.128906 92.53125 315.921875 95.167969 317.503906 C 97.800781 319.089844 99.855469 321.3125 101.324219 324.175781 C 102.792969 327.039062 103.527344 330.398438 103.527344 334.25 C 103.527344 338.070312 102.78125 341.410156 101.296875 344.273438 C 99.8125 347.136719 97.75 349.359375 95.113281 350.945312 C 92.476562 352.527344 89.421875 353.320312 85.945312 353.320312 Z M 85.9375 346.835938 C 88.160156 346.835938 90.066406 346.320312 91.660156 345.289062 C 93.253906 344.253906 94.488281 342.792969 95.367188 340.910156 C 96.246094 339.023438 96.6875 336.804688 96.6875 334.25 C 96.6875 331.664062 96.246094 329.429688 95.367188 327.542969 C 94.484375 325.65625 93.246094 324.195312 91.652344 323.164062 C 90.054688 322.128906 88.148438 321.613281 85.929688 321.613281 C 83.773438 321.613281 81.886719 322.121094 80.273438 323.136719 C 78.660156 324.152344 77.417969 325.601562 76.550781 327.484375 C 75.679688 329.367188 75.246094 331.621094 75.246094 334.246094 C 75.246094 336.84375 75.679688 339.082031 76.550781 340.964844 C 77.417969 342.847656 78.660156 344.296875 80.273438 345.3125 C 81.886719 346.328125 83.773438 346.835938 85.9375 346.835938 Z M 108.8125 363.199219 L 108.8125 326.648438 L 115.292969 326.648438 L 115.292969 333.570312 L 113.753906 334.113281 C 114.207031 332.046875 114.890625 330.433594 115.804688 329.285156 C 116.714844 328.132812 117.769531 327.320312 118.972656 326.847656 C 120.171875 326.371094 121.414062 326.132812 122.699219 326.132812 C 124.980469 326.132812 126.945312 326.71875 128.59375 327.890625 C 130.246094 329.0625 131.511719 330.664062 132.398438 332.695312 C 133.28125 334.726562 133.722656 337.027344 133.722656 339.601562 C 133.722656 342.398438 133.230469 344.800781 132.246094 346.8125 C 131.257812 348.820312 129.933594 350.359375 128.265625 351.421875 C 126.597656 352.484375 124.742188 353.015625 122.699219 353.015625 C 121.328125 353.015625 120.035156 352.738281 118.8125 352.1875 C 117.59375 351.632812 116.558594 350.785156 115.703125 349.644531 C 114.851562 348.5 114.261719 347.054688 113.941406 345.304688 L 115.292969 345.515625 L 115.292969 363.199219 Z M 120.925781 347.058594 C 122.207031 347.058594 123.3125 346.753906 124.246094 346.144531 C 125.179688 345.539062 125.902344 344.671875 126.417969 343.542969 C 126.933594 342.417969 127.1875 341.105469 127.1875 339.601562 C 127.1875 338.074219 126.933594 336.75 126.417969 335.625 C 125.902344 334.5 125.179688 333.632812 124.246094 333.023438 C 123.3125 332.414062 122.207031 332.113281 120.925781 332.113281 C 119.667969 332.113281 118.570312 332.421875 117.632812 333.039062 C 116.695312 333.65625 115.972656 334.523438 115.46875 335.640625 C 114.960938 336.757812 114.707031 338.074219 114.707031 339.601562 C 114.707031 341.105469 114.960938 342.414062 115.46875 343.527344 C 115.972656 344.644531 116.695312 345.511719 117.632812 346.128906 C 118.570312 346.75 119.667969 347.058594 120.925781 347.058594 Z M 150.472656 353.015625 C 148.238281 353.015625 146.308594 352.652344 144.695312 351.929688 C 143.078125 351.207031 141.757812 350.21875 140.730469 348.960938 C 139.703125 347.707031 138.945312 346.28125 138.460938 344.691406 C 137.972656 343.101562 137.730469 341.445312 137.730469 339.726562 C 137.730469 338.046875 137.96875 336.402344 138.449219 334.785156 C 138.925781 333.171875 139.660156 331.710938 140.640625 330.410156 C 141.625 329.109375 142.894531 328.074219 144.457031 327.296875 C 146.023438 326.519531 147.886719 326.132812 150.054688 326.132812 C 152.070312 326.132812 153.828125 326.472656 155.332031 327.15625 C 156.832031 327.835938 158.082031 328.78125 159.070312 329.992188 C 160.058594 331.203125 160.800781 332.605469 161.300781 334.199219 C 161.796875 335.792969 162.042969 337.503906 162.042969 339.328125 C 162.042969 339.59375 162.035156 339.941406 162.015625 340.375 C 162 340.808594 161.957031 341.273438 161.886719 341.761719 L 144.246094 341.761719 C 144.410156 343.605469 145.097656 345 146.304688 345.933594 C 147.511719 346.871094 149.011719 347.339844 150.808594 347.339844 C 152.167969 347.339844 153.46875 347.113281 154.710938 346.652344 C 155.957031 346.195312 157.066406 345.519531 158.046875 344.625 L 161.296875 349.050781 C 160.101562 350.003906 158.960938 350.769531 157.871094 351.351562 C 156.777344 351.9375 155.648438 352.359375 154.476562 352.621094 C 153.304688 352.882812 151.972656 353.015625 150.472656 353.015625 Z M 155.625 338.5 C 155.695312 338.21875 155.75 337.941406 155.785156 337.660156 C 155.824219 337.378906 155.84375 337.109375 155.84375 336.851562 C 155.84375 336.117188 155.710938 335.429688 155.445312 334.789062 C 155.179688 334.152344 154.800781 333.589844 154.308594 333.109375 C 153.816406 332.625 153.222656 332.246094 152.53125 331.96875 C 151.835938 331.691406 151.058594 331.554688 150.191406 331.554688 C 148.898438 331.554688 147.820312 331.820312 146.957031 332.351562 C 146.09375 332.882812 145.4375 333.558594 144.988281 334.375 C 144.542969 335.195312 144.265625 336.050781 144.160156 336.945312 L 157.785156 336.945312 Z M 167.320312 352.5 L 167.320312 326.648438 L 173.855469 326.648438 L 173.855469 332.5 L 172.804688 332.644531 C 173.253906 331.066406 173.917969 329.800781 174.796875 328.855469 C 175.679688 327.90625 176.699219 327.214844 177.855469 326.78125 C 179.011719 326.347656 180.203125 326.132812 181.425781 326.132812 C 184.363281 326.132812 186.65625 326.964844 188.308594 328.625 C 189.957031 330.285156 190.78125 332.613281 190.78125 335.613281 L 190.78125 352.5 L 184.25 352.5 L 184.25 338.027344 C 184.25 335.867188 183.863281 334.285156 183.089844 333.285156 C 182.316406 332.285156 181.109375 331.785156 179.464844 331.785156 C 178.222656 331.785156 177.183594 332.078125 176.355469 332.65625 C 175.527344 333.238281 174.902344 334.140625 174.484375 335.367188 C 174.0625 336.59375 173.855469 338.175781 173.855469 340.101562 L 173.855469 352.5 Z M 210.859375 352.5 L 210.859375 315.949219 L 221.515625 315.949219 C 227.578125 315.949219 232.273438 317.558594 235.601562 320.785156 C 238.929688 324.007812 240.59375 328.582031 240.59375 334.511719 C 240.59375 340.316406 238.953125 344.765625 235.671875 347.859375 C 232.386719 350.953125 227.652344 352.5 221.464844 352.5 Z M 217.644531 346.269531 L 220.792969 346.269531 C 223.527344 346.269531 225.859375 345.917969 227.792969 345.210938 C 229.726562 344.503906 231.203125 343.277344 232.226562 341.523438 C 233.246094 339.773438 233.757812 337.351562 233.757812 334.261719 C 233.757812 331.234375 233.261719 328.835938 232.273438 327.070312 C 231.28125 325.304688 229.867188 324.046875 228.023438 323.300781 C 226.179688 322.550781 223.972656 322.179688 221.398438 322.179688 L 217.644531 322.179688 Z M 262.433594 352.5 L 261.929688 348.597656 L 261.929688 336.171875 C 261.929688 334.640625 261.445312 333.5 260.480469 332.75 C 259.515625 332.003906 258.210938 331.628906 256.570312 331.628906 C 255.191406 331.628906 253.796875 331.894531 252.382812 332.429688 C 250.972656 332.964844 249.71875 333.726562 248.628906 334.710938 L 245.335938 330.285156 C 247.148438 328.796875 249.003906 327.730469 250.910156 327.09375 C 252.816406 326.453125 254.878906 326.132812 257.105469 326.132812 C 260.664062 326.132812 263.4375 327.023438 265.425781 328.800781 C 267.417969 330.582031 268.410156 333.039062 268.410156 336.171875 L 268.410156 352.5 Z M 254.640625 353.015625 C 252.746094 353.015625 251.050781 352.664062 249.558594 351.960938 C 248.066406 351.257812 246.894531 350.265625 246.042969 348.976562 C 245.195312 347.691406 244.769531 346.203125 244.769531 344.507812 C 244.769531 343.035156 245.078125 341.761719 245.699219 340.691406 C 246.316406 339.621094 247.132812 338.796875 248.148438 338.214844 C 248.992188 337.707031 249.953125 337.339844 251.03125 337.125 C 252.109375 336.90625 253.25 336.800781 254.460938 336.800781 L 262.472656 336.800781 L 262.472656 341.636719 L 255.40625 341.636719 C 254.84375 341.636719 254.296875 341.683594 253.765625 341.78125 C 253.230469 341.878906 252.761719 342.074219 252.363281 342.359375 C 252.035156 342.601562 251.777344 342.910156 251.585938 343.277344 C 251.398438 343.644531 251.304688 344.0625 251.304688 344.53125 C 251.304688 345.515625 251.691406 346.300781 252.460938 346.882812 C 253.234375 347.46875 254.269531 347.761719 255.5625 347.761719 C 256.722656 347.761719 257.785156 347.507812 258.746094 347 C 259.707031 346.492188 260.476562 345.796875 261.058594 344.90625 C 261.640625 344.019531 261.929688 343.007812 261.929688 341.875 L 263.671875 345.304688 C 263.1875 347.117188 262.488281 348.59375 261.566406 349.730469 C 260.648438 350.871094 259.59375 351.703125 258.410156 352.230469 C 257.226562 352.753906 255.96875 353.015625 254.640625 353.015625 Z M 284.34375 353.015625 C 282.972656 353.015625 281.691406 352.753906 280.496094 352.230469 C 279.300781 351.703125 278.34375 350.847656 277.625 349.664062 C 276.910156 348.480469 276.550781 346.898438 276.550781 344.917969 L 276.550781 320.636719 L 283.136719 317.082031 L 283.136719 343.101562 C 283.136719 344.601562 283.34375 345.734375 283.757812 346.511719 C 284.167969 347.289062 284.960938 347.675781 286.125 347.675781 C 286.476562 347.675781 286.875 347.636719 287.324219 347.5625 C 287.769531 347.484375 288.253906 347.375 288.769531 347.234375 L 288.769531 352.238281 C 288.042969 352.503906 287.3125 352.699219 286.578125 352.828125 C 285.84375 352.953125 285.097656 353.015625 284.34375 353.015625 Z M 271.832031 331.710938 L 271.832031 326.648438 L 288.769531 326.648438 L 288.769531 331.710938 Z M 310.3125 352.5 L 309.8125 348.597656 L 309.8125 336.171875 C 309.8125 334.640625 309.328125 333.5 308.363281 332.75 C 307.398438 332.003906 306.09375 331.628906 304.453125 331.628906 C 303.074219 331.628906 301.679688 331.894531 300.265625 332.429688 C 298.855469 332.964844 297.601562 333.726562 296.511719 334.710938 L 293.21875 330.285156 C 295.027344 328.796875 296.886719 327.730469 298.792969 327.09375 C 300.699219 326.453125 302.761719 326.132812 304.988281 326.132812 C 308.546875 326.132812 311.320312 327.023438 313.308594 328.800781 C 315.296875 330.582031 316.292969 333.039062 316.292969 336.171875 L 316.292969 352.5 Z M 302.523438 353.015625 C 300.625 353.015625 298.933594 352.664062 297.4375 351.960938 C 295.945312 351.257812 294.773438 350.265625 293.925781 348.976562 C 293.074219 347.691406 292.652344 346.203125 292.652344 344.507812 C 292.652344 343.035156 292.960938 341.761719 293.578125 340.691406 C 294.199219 339.621094 295.015625 338.796875 296.027344 338.214844 C 296.875 337.707031 297.835938 337.339844 298.914062 337.125 C 299.988281 336.90625 301.132812 336.800781 302.34375 336.800781 L 310.355469 336.800781 L 310.355469 341.636719 L 303.285156 341.636719 C 302.726562 341.636719 302.179688 341.683594 301.644531 341.78125 C 301.109375 341.878906 300.644531 342.074219 300.246094 342.359375 C 299.917969 342.601562 299.65625 342.910156 299.46875 343.277344 C 299.28125 343.644531 299.183594 344.0625 299.183594 344.53125 C 299.183594 345.515625 299.570312 346.300781 300.34375 346.882812 C 301.117188 347.46875 302.152344 347.761719 303.445312 347.761719 C 304.605469 347.761719 305.667969 347.507812 306.628906 347 C 307.589844 346.492188 308.359375 345.796875 308.941406 344.90625 C 309.519531 344.019531 309.8125 343.007812 309.8125 341.875 L 311.550781 345.304688 C 311.070312 347.117188 310.367188 348.59375 309.449219 349.730469 C 308.53125 350.871094 307.476562 351.703125 306.292969 352.230469 C 305.105469 352.753906 303.851562 353.015625 302.523438 353.015625 Z M 336.335938 352.5 L 336.335938 315.949219 L 348.410156 315.949219 C 351.375 315.949219 353.769531 316.378906 355.59375 317.242188 C 357.421875 318.105469 358.757812 319.335938 359.613281 320.925781 C 360.464844 322.515625 360.890625 324.386719 360.890625 326.542969 C 360.890625 329.898438 359.933594 332.492188 358.019531 334.320312 C 356.101562 336.148438 353.378906 337.175781 349.847656 337.410156 C 349.050781 337.421875 348.230469 337.429688 347.394531 337.429688 C 346.554688 337.429688 345.835938 337.429688 345.242188 337.429688 L 343.125 337.429688 L 343.125 352.5 Z M 356.191406 352.5 L 347.015625 336.664062 L 353.96875 335.835938 L 364.039062 352.5 Z M 343.125 331.386719 L 347.71875 331.386719 C 348.886719 331.386719 349.949219 331.257812 350.90625 330.996094 C 351.863281 330.730469 352.636719 330.257812 353.226562 329.566406 C 353.8125 328.878906 354.105469 327.898438 354.105469 326.625 C 354.105469 325.339844 353.8125 324.363281 353.226562 323.703125 C 352.636719 323.042969 351.859375 322.597656 350.894531 322.363281 C 349.929688 322.128906 348.871094 322.011719 347.71875 322.011719 L 343.125 322.011719 Z M 384.511719 352.5 L 384.007812 348.597656 L 384.007812 336.171875 C 384.007812 334.640625 383.527344 333.5 382.5625 332.75 C 381.597656 332.003906 380.292969 331.628906 378.648438 331.628906 C 377.273438 331.628906 375.875 331.894531 374.464844 332.429688 C 373.050781 332.964844 371.800781 333.726562 370.710938 334.710938 L 367.414062 330.285156 C 369.226562 328.796875 371.085938 327.730469 372.992188 327.09375 C 374.894531 326.453125 376.960938 326.132812 379.183594 326.132812 C 382.742188 326.132812 385.519531 327.023438 387.507812 328.800781 C 389.496094 330.582031 390.492188 333.039062 390.492188 336.171875 L 390.492188 352.5 Z M 376.71875 353.015625 C 374.824219 353.015625 373.128906 352.664062 371.636719 351.960938 C 370.144531 351.257812 368.972656 350.265625 368.125 348.976562 C 367.273438 347.691406 366.851562 346.203125 366.851562 344.507812 C 366.851562 343.035156 367.160156 341.761719 367.777344 340.691406 C 368.398438 339.621094 369.214844 338.796875 370.226562 338.214844 C 371.074219 337.707031 372.035156 337.339844 373.113281 337.125 C 374.1875 336.90625 375.332031 336.800781 376.542969 336.800781 L 384.554688 336.800781 L 384.554688 341.636719 L 377.484375 341.636719 C 376.925781 341.636719 376.378906 341.683594 375.84375 341.78125 C 375.308594 341.878906 374.84375 342.074219 374.445312 342.359375 C 374.113281 342.601562 373.855469 342.910156 373.667969 343.277344 C 373.476562 343.644531 373.382812 344.0625 373.382812 344.53125 C 373.382812 345.515625 373.769531 346.300781 374.542969 346.882812 C 375.316406 347.46875 376.347656 347.761719 377.644531 347.761719 C 378.804688 347.761719 379.863281 347.507812 380.828125 347 C 381.789062 346.492188 382.558594 345.796875 383.140625 344.90625 C 383.71875 344.019531 384.007812 343.007812 384.007812 341.875 L 385.75 345.304688 C 385.269531 347.117188 384.566406 348.59375 383.648438 349.730469 C 382.726562 350.871094 381.675781 351.703125 380.492188 352.230469 C 379.304688 352.753906 378.046875 353.015625 376.71875 353.015625 Z M 396.597656 352.5 L 396.597656 326.648438 L 403.128906 326.648438 L 403.128906 332.5 L 402.082031 332.644531 C 402.527344 331.066406 403.195312 329.800781 404.074219 328.855469 C 404.957031 327.90625 405.976562 327.214844 407.132812 326.78125 C 408.289062 326.347656 409.480469 326.132812 410.703125 326.132812 C 413.640625 326.132812 415.933594 326.964844 417.585938 328.625 C 419.234375 330.285156 420.058594 332.613281 420.058594 335.613281 L 420.058594 352.5 L 413.523438 352.5 L 413.523438 338.027344 C 413.523438 335.867188 413.140625 334.285156 412.367188 333.285156 C 411.59375 332.285156 410.386719 331.785156 408.742188 331.785156 C 407.496094 331.785156 406.460938 332.078125 405.632812 332.65625 C 404.804688 333.238281 404.179688 334.140625 403.761719 335.367188 C 403.339844 336.59375 403.128906 338.175781 403.128906 340.101562 L 403.128906 352.5 Z M 443.691406 352.5 L 436.222656 340.691406 L 432.175781 345.234375 L 432.175781 337.0625 L 442.066406 326.648438 L 450.363281 326.648438 L 440.984375 336.316406 L 451.441406 352.5 Z M 426.195312 352.5 L 426.195312 315.949219 L 432.730469 315.949219 L 432.730469 352.5 Z M 455.480469 352.5 L 455.480469 326.648438 L 461.984375 326.648438 L 461.984375 352.5 Z M 455.269531 322.660156 L 455.269531 315.949219 L 462.246094 315.949219 L 462.246094 322.660156 Z M 468.402344 352.5 L 468.402344 326.648438 L 474.9375 326.648438 L 474.9375 332.5 L 473.886719 332.644531 C 474.335938 331.066406 475 329.800781 475.882812 328.855469 C 476.761719 327.90625 477.78125 327.214844 478.9375 326.78125 C 480.097656 326.347656 481.289062 326.132812 482.511719 326.132812 C 485.449219 326.132812 487.742188 326.964844 489.390625 328.625 C 491.042969 330.285156 491.867188 332.613281 491.867188 335.613281 L 491.867188 352.5 L 485.332031 352.5 L 485.332031 338.027344 C 485.332031 335.867188 484.945312 334.285156 484.171875 333.285156 C 483.398438 332.285156 482.191406 331.785156 480.550781 331.785156 C 479.304688 331.785156 478.269531 332.078125 477.4375 332.65625 C 476.609375 333.238281 475.988281 334.140625 475.566406 335.367188 C 475.148438 336.59375 474.9375 338.175781 474.9375 340.101562 L 474.9375 352.5 Z M 508.910156 363.734375 C 505.058594 363.734375 502.023438 363.046875 499.800781 361.675781 C 497.582031 360.300781 496.472656 358.417969 496.472656 356.027344 C 496.472656 355.808594 496.484375 355.554688 496.511719 355.265625 C 496.542969 354.976562 496.589844 354.6875 496.660156 354.398438 L 503.929688 349.890625 L 505.542969 351.695312 L 502.25 355.753906 C 502.214844 355.851562 502.199219 355.9375 502.199219 356.011719 C 502.199219 356.082031 502.199219 356.164062 502.199219 356.246094 C 502.199219 357.203125 502.8125 357.945312 504.039062 358.46875 C 505.265625 358.992188 506.890625 359.257812 508.910156 359.257812 C 510.601562 359.257812 511.910156 359.039062 512.835938 358.601562 C 513.757812 358.164062 514.21875 357.53125 514.21875 356.707031 C 514.21875 356.261719 514.089844 355.898438 513.835938 355.617188 C 513.582031 355.335938 513.171875 355.105469 512.609375 354.925781 C 512.046875 354.742188 511.320312 354.582031 510.433594 354.4375 C 509.542969 354.292969 508.46875 354.144531 507.210938 353.992188 C 505.617188 353.789062 504.050781 353.453125 502.511719 352.988281 C 500.976562 352.523438 499.699219 351.828125 498.683594 350.902344 C 497.671875 349.976562 497.164062 348.742188 497.164062 347.203125 C 497.164062 345.835938 497.632812 344.578125 498.574219 343.4375 C 499.515625 342.300781 500.757812 341.367188 502.304688 340.636719 L 505.417969 343.167969 C 504.503906 343.320312 503.804688 343.640625 503.324219 344.121094 C 502.847656 344.605469 502.605469 345.171875 502.605469 345.832031 C 502.605469 346.390625 502.832031 346.835938 503.285156 347.171875 C 503.734375 347.507812 504.378906 347.765625 505.21875 347.9375 C 506.058594 348.113281 507.054688 348.277344 508.207031 348.433594 C 510.011719 348.65625 511.675781 348.90625 513.195312 349.1875 C 514.71875 349.464844 516.039062 349.859375 517.167969 350.367188 C 518.292969 350.875 519.160156 351.566406 519.765625 352.445312 C 520.375 353.320312 520.679688 354.464844 520.679688 355.867188 C 520.679688 358.414062 519.660156 360.363281 517.617188 361.710938 C 515.574219 363.0625 512.671875 363.734375 508.910156 363.734375 Z M 508.375 345.273438 C 506.214844 345.273438 504.320312 344.863281 502.6875 344.042969 C 501.054688 343.222656 499.78125 342.097656 498.875 340.671875 C 497.964844 339.242188 497.507812 337.613281 497.507812 335.78125 C 497.507812 333.839844 497.992188 332.144531 498.957031 330.699219 C 499.921875 329.257812 501.21875 328.132812 502.84375 327.332031 C 504.46875 326.53125 506.238281 326.132812 508.15625 326.132812 C 510.058594 326.132812 511.820312 326.53125 513.4375 327.332031 C 515.054688 328.132812 516.363281 329.277344 517.355469 330.757812 C 518.347656 332.242188 518.84375 333.988281 518.84375 336.003906 C 518.84375 337.871094 518.402344 339.5 517.523438 340.890625 C 516.640625 342.28125 515.414062 343.359375 513.839844 344.125 C 512.269531 344.890625 510.445312 345.273438 508.375 345.273438 Z M 508.242188 340.113281 C 509.632812 340.113281 510.667969 339.6875 511.34375 338.828125 C 512.023438 337.972656 512.363281 336.941406 512.363281 335.742188 C 512.363281 334.476562 511.992188 333.449219 511.25 332.667969 C 510.507812 331.882812 509.503906 331.492188 508.242188 331.492188 C 506.941406 331.492188 505.910156 331.886719 505.15625 332.675781 C 504.402344 333.46875 504.023438 334.480469 504.023438 335.71875 C 504.023438 336.9375 504.371094 337.972656 505.074219 338.828125 C 505.773438 339.6875 506.828125 340.113281 508.242188 340.113281 Z M 517.101562 332.101562 L 512.394531 329.070312 L 518.382812 324.277344 L 521.707031 328.3125 Z M 539.339844 352.5 L 539.339844 315.949219 L 549.996094 315.949219 C 556.058594 315.949219 560.753906 317.558594 564.082031 320.785156 C 567.410156 324.007812 569.074219 328.582031 569.074219 334.511719 C 569.074219 340.316406 567.433594 344.765625 564.152344 347.859375 C 560.867188 350.953125 556.132812 352.5 549.945312 352.5 Z M 546.125 346.269531 L 549.273438 346.269531 C 552.007812 346.269531 554.339844 345.917969 556.273438 345.210938 C 558.207031 344.503906 559.683594 343.277344 560.707031 341.523438 C 561.726562 339.773438 562.238281 337.351562 562.238281 334.261719 C 562.238281 331.234375 561.742188 328.835938 560.753906 327.070312 C 559.761719 325.304688 558.347656 324.046875 556.503906 323.300781 C 554.660156 322.550781 552.453125 322.179688 549.878906 322.179688 L 546.125 322.179688 Z M 585.898438 353.015625 C 583.664062 353.015625 581.734375 352.652344 580.121094 351.929688 C 578.503906 351.207031 577.183594 350.21875 576.15625 348.960938 C 575.128906 347.707031 574.371094 346.28125 573.886719 344.691406 C 573.398438 343.101562 573.15625 341.445312 573.15625 339.726562 C 573.15625 338.046875 573.394531 336.402344 573.875 334.785156 C 574.351562 333.171875 575.082031 331.710938 576.066406 330.410156 C 577.046875 329.109375 578.320312 328.074219 579.882812 327.296875 C 581.449219 326.519531 583.3125 326.132812 585.480469 326.132812 C 587.492188 326.132812 589.253906 326.472656 590.757812 327.15625 C 592.257812 327.835938 593.503906 328.78125 594.496094 329.992188 C 595.484375 331.203125 596.226562 332.605469 596.722656 334.199219 C 597.21875 335.792969 597.46875 337.503906 597.46875 339.328125 C 597.46875 339.59375 597.460938 339.941406 597.441406 340.375 C 597.425781 340.808594 597.382812 341.273438 597.3125 341.761719 L 579.667969 341.761719 C 579.835938 343.605469 580.523438 345 581.730469 345.933594 C 582.9375 346.871094 584.4375 347.339844 586.234375 347.339844 C 587.59375 347.339844 588.894531 347.113281 590.136719 346.652344 C 591.382812 346.195312 592.492188 345.519531 593.472656 344.625 L 596.722656 349.050781 C 595.527344 350.003906 594.386719 350.769531 593.292969 351.351562 C 592.203125 351.9375 591.074219 352.359375 589.902344 352.621094 C 588.730469 352.882812 587.394531 353.015625 585.898438 353.015625 Z M 591.050781 338.5 C 591.121094 338.21875 591.175781 337.941406 591.210938 337.660156 C 591.25 337.378906 591.269531 337.109375 591.269531 336.851562 C 591.269531 336.117188 591.136719 335.429688 590.871094 334.789062 C 590.605469 334.152344 590.226562 333.589844 589.734375 333.109375 C 589.242188 332.625 588.648438 332.246094 587.957031 331.96875 C 587.261719 331.691406 586.484375 331.554688 585.617188 331.554688 C 584.324219 331.554688 583.246094 331.820312 582.378906 332.351562 C 581.515625 332.882812 580.863281 333.558594 580.414062 334.375 C 579.964844 335.195312 579.691406 336.050781 579.585938 336.945312 L 593.210938 336.945312 Z M 611.859375 353.015625 C 609.753906 353.015625 608 352.597656 606.59375 351.761719 C 605.1875 350.925781 604.144531 349.742188 603.457031 348.210938 C 602.773438 346.679688 602.429688 344.871094 602.429688 342.789062 L 602.429688 326.648438 L 608.945312 326.648438 L 608.945312 341.183594 C 608.945312 342.371094 609.085938 343.429688 609.363281 344.355469 C 609.644531 345.285156 610.136719 346.011719 610.84375 346.542969 C 611.546875 347.074219 612.539062 347.339844 613.8125 347.339844 C 615.347656 347.339844 616.511719 346.910156 617.296875 346.050781 C 618.085938 345.191406 618.625 343.976562 618.917969 342.410156 C 619.210938 340.84375 619.359375 339.011719 619.359375 336.914062 L 619.359375 326.648438 L 625.875 326.648438 L 625.875 352.5 L 619.359375 352.5 L 619.359375 346.902344 L 620.273438 347.4375 C 619.472656 349.421875 618.328125 350.847656 616.835938 351.714844 C 615.34375 352.582031 613.683594 353.015625 611.859375 353.015625 Z M 642.171875 353.015625 C 640.800781 353.015625 639.519531 352.753906 638.324219 352.230469 C 637.128906 351.703125 636.171875 350.847656 635.453125 349.664062 C 634.738281 348.480469 634.378906 346.898438 634.378906 344.917969 L 634.378906 320.636719 L 640.964844 317.082031 L 640.964844 343.101562 C 640.964844 344.601562 641.171875 345.734375 641.585938 346.511719 C 641.996094 347.289062 642.789062 347.675781 643.957031 347.675781 C 644.304688 347.675781 644.703125 347.636719 645.152344 347.5625 C 645.597656 347.484375 646.082031 347.375 646.597656 347.234375 L 646.597656 352.238281 C 645.871094 352.503906 645.140625 352.699219 644.40625 352.828125 C 643.671875 352.953125 642.929688 353.015625 642.171875 353.015625 Z M 629.660156 331.710938 L 629.660156 326.648438 L 646.597656 326.648438 L 646.597656 331.710938 Z M 660.550781 353.015625 C 658.632812 353.015625 656.953125 352.738281 655.515625 352.179688 C 654.074219 351.625 652.859375 350.933594 651.875 350.101562 C 650.890625 349.269531 650.089844 348.46875 649.472656 347.699219 L 653.917969 343.816406 C 654.542969 344.789062 655.40625 345.6875 656.507812 346.511719 C 657.605469 347.339844 658.972656 347.75 660.601562 347.75 C 661.886719 347.75 662.894531 347.488281 663.621094 346.96875 C 664.351562 346.449219 664.714844 345.8125 664.714844 345.066406 C 664.714844 344.421875 664.480469 343.902344 664.011719 343.511719 C 663.542969 343.121094 662.921875 342.789062 662.152344 342.511719 C 661.382812 342.234375 660.527344 341.976562 659.582031 341.738281 C 658.605469 341.472656 657.597656 341.160156 656.558594 340.800781 C 655.519531 340.441406 654.5625 339.972656 653.683594 339.394531 C 652.804688 338.820312 652.097656 338.078125 651.554688 337.175781 C 651.011719 336.273438 650.742188 335.148438 650.742188 333.800781 C 650.742188 331.5 651.636719 329.644531 653.421875 328.242188 C 655.207031 326.835938 657.5625 326.132812 660.484375 326.132812 C 662.550781 326.132812 664.425781 326.539062 666.113281 327.347656 C 667.800781 328.160156 669.132812 329.34375 670.105469 330.90625 L 666.078125 334.074219 C 665.417969 333.078125 664.582031 332.328125 663.558594 331.816406 C 662.539062 331.308594 661.453125 331.050781 660.296875 331.050781 C 659.289062 331.050781 658.457031 331.246094 657.800781 331.640625 C 657.144531 332.03125 656.816406 332.546875 656.816406 333.191406 C 656.816406 333.652344 656.96875 334.039062 657.269531 334.34375 C 657.574219 334.652344 658.070312 334.925781 658.753906 335.167969 C 659.441406 335.410156 660.335938 335.671875 661.441406 335.949219 C 662.484375 336.195312 663.5625 336.492188 664.679688 336.84375 C 665.800781 337.191406 666.847656 337.660156 667.824219 338.253906 C 668.796875 338.84375 669.589844 339.628906 670.199219 340.605469 C 670.808594 341.585938 671.113281 342.832031 671.113281 344.339844 C 671.113281 346.054688 670.671875 347.566406 669.796875 348.871094 C 668.917969 350.179688 667.6875 351.199219 666.101562 351.925781 C 664.519531 352.652344 662.667969 353.015625 660.550781 353.015625 Z M 687.714844 353.015625 C 685.625 353.015625 683.792969 352.644531 682.222656 351.902344 C 680.65625 351.164062 679.339844 350.15625 678.285156 348.882812 C 677.230469 347.609375 676.441406 346.167969 675.914062 344.5625 C 675.390625 342.953125 675.128906 341.28125 675.128906 339.546875 C 675.128906 337.828125 675.390625 336.164062 675.914062 334.554688 C 676.441406 332.945312 677.230469 331.511719 678.285156 330.25 C 679.339844 328.988281 680.65625 327.984375 682.222656 327.246094 C 683.792969 326.503906 685.625 326.132812 687.714844 326.132812 C 690.332031 326.132812 692.601562 326.757812 694.535156 328.011719 C 696.464844 329.261719 697.898438 331.175781 698.832031 333.746094 L 693.136719 335.992188 C 692.734375 334.753906 692.097656 333.742188 691.234375 332.960938 C 690.371094 332.175781 689.199219 331.785156 687.714844 331.785156 C 686.296875 331.785156 685.136719 332.160156 684.238281 332.914062 C 683.339844 333.664062 682.683594 334.632812 682.265625 335.8125 C 681.851562 336.996094 681.644531 338.238281 681.644531 339.546875 C 681.644531 340.855469 681.851562 342.109375 682.265625 343.308594 C 682.683594 344.507812 683.339844 345.480469 684.238281 346.222656 C 685.136719 346.96875 686.296875 347.339844 687.714844 347.339844 C 689.199219 347.339844 690.371094 346.953125 691.234375 346.175781 C 692.097656 345.402344 692.734375 344.386719 693.136719 343.136719 L 698.832031 345.378906 C 697.898438 347.953125 696.464844 349.867188 694.535156 351.128906 C 692.601562 352.386719 690.332031 353.015625 687.714844 353.015625 Z M 703.722656 352.5 L 703.722656 315.949219 L 710.253906 315.949219 L 710.253906 332.5 L 709.1875 332.667969 C 709.632812 331.085938 710.304688 329.820312 711.199219 328.863281 C 712.09375 327.910156 713.121094 327.214844 714.277344 326.78125 C 715.4375 326.347656 716.617188 326.132812 717.828125 326.132812 C 720.765625 326.132812 723.058594 326.964844 724.710938 328.625 C 726.359375 330.285156 727.183594 332.613281 727.183594 335.613281 L 727.183594 352.5 L 720.652344 352.5 L 720.652344 338.027344 C 720.652344 335.867188 720.265625 334.285156 719.492188 333.285156 C 718.71875 332.285156 717.511719 331.785156 715.867188 331.785156 C 714.007812 331.785156 712.605469 332.453125 711.667969 333.785156 C 710.726562 335.117188 710.253906 337.222656 710.253906 340.101562 L 710.253906 352.5 Z M 739.332031 353.015625 C 737.570312 353.015625 736.105469 352.480469 734.9375 351.40625 C 733.769531 350.332031 733.183594 348.625 733.183594 346.28125 L 733.183594 315.949219 L 739.667969 315.949219 L 739.667969 345.003906 C 739.667969 345.722656 739.839844 346.234375 740.1875 346.542969 C 740.53125 346.851562 740.980469 347.003906 741.535156 347.003906 C 741.828125 347.003906 742.128906 346.976562 742.441406 346.917969 C 742.753906 346.855469 743.074219 346.777344 743.410156 346.679688 L 743.410156 352.21875 C 742.691406 352.503906 741.972656 352.710938 741.257812 352.832031 C 740.539062 352.953125 739.898438 353.015625 739.332031 353.015625 Z M 764.429688 352.5 L 763.929688 348.597656 L 763.929688 336.171875 C 763.929688 334.640625 763.445312 333.5 762.480469 332.75 C 761.515625 332.003906 760.210938 331.628906 758.566406 331.628906 C 757.191406 331.628906 755.796875 331.894531 754.382812 332.429688 C 752.96875 332.964844 751.71875 333.726562 750.628906 334.710938 L 747.335938 330.285156 C 749.144531 328.796875 751.003906 327.730469 752.910156 327.09375 C 754.8125 326.453125 756.878906 326.132812 759.101562 326.132812 C 762.660156 326.132812 765.4375 327.023438 767.425781 328.800781 C 769.414062 330.582031 770.410156 333.039062 770.410156 336.171875 L 770.410156 352.5 Z M 756.636719 353.015625 C 754.742188 353.015625 753.050781 352.664062 751.554688 351.960938 C 750.0625 351.257812 748.890625 350.265625 748.042969 348.976562 C 747.191406 347.691406 746.769531 346.203125 746.769531 344.507812 C 746.769531 343.035156 747.078125 341.761719 747.695312 340.691406 C 748.316406 339.621094 749.132812 338.796875 750.144531 338.214844 C 750.992188 337.707031 751.953125 337.339844 753.03125 337.125 C 754.105469 336.90625 755.25 336.800781 756.460938 336.800781 L 764.472656 336.800781 L 764.472656 341.636719 L 757.402344 341.636719 C 756.84375 341.636719 756.296875 341.683594 755.761719 341.78125 C 755.226562 341.878906 754.761719 342.074219 754.363281 342.359375 C 754.035156 342.601562 753.773438 342.910156 753.585938 343.277344 C 753.398438 343.644531 753.300781 344.0625 753.300781 344.53125 C 753.300781 345.515625 753.6875 346.300781 754.460938 346.882812 C 755.234375 347.46875 756.265625 347.761719 757.5625 347.761719 C 758.722656 347.761719 759.78125 347.507812 760.746094 347 C 761.707031 346.492188 762.476562 345.796875 763.058594 344.90625 C 763.636719 344.019531 763.929688 343.007812 763.929688 341.875 L 765.667969 345.304688 C 765.1875 347.117188 764.484375 348.59375 763.566406 349.730469 C 762.644531 350.871094 761.59375 351.703125 760.410156 352.230469 C 759.222656 352.753906 757.964844 353.015625 756.636719 353.015625 Z M 776.515625 352.5 L 776.515625 326.648438 L 783.046875 326.648438 L 783.046875 332.5 L 782 332.644531 C 782.449219 331.066406 783.113281 329.800781 783.992188 328.855469 C 784.875 327.90625 785.894531 327.214844 787.050781 326.78125 C 788.207031 326.347656 789.398438 326.132812 790.621094 326.132812 C 793.558594 326.132812 795.851562 326.964844 797.503906 328.625 C 799.152344 330.285156 799.976562 332.613281 799.976562 335.613281 L 799.976562 352.5 L 793.445312 352.5 L 793.445312 338.027344 C 793.445312 335.867188 793.058594 334.285156 792.285156 333.285156 C 791.511719 332.285156 790.304688 331.785156 788.660156 331.785156 C 787.414062 331.785156 786.378906 332.078125 785.550781 332.65625 C 784.722656 333.238281 784.097656 334.140625 783.679688 335.367188 C 783.257812 336.59375 783.046875 338.175781 783.046875 340.101562 L 783.046875 352.5 Z M 815.933594 353.015625 C 813.652344 353.015625 811.6875 352.429688 810.035156 351.257812 C 808.386719 350.085938 807.117188 348.484375 806.234375 346.445312 C 805.351562 344.40625 804.90625 342.105469 804.90625 339.546875 C 804.90625 336.714844 805.402344 334.304688 806.386719 332.308594 C 807.371094 330.316406 808.703125 328.789062 810.382812 327.726562 C 812.0625 326.664062 813.910156 326.132812 815.933594 326.132812 C 817.324219 326.132812 818.625 326.417969 819.832031 326.992188 C 821.042969 327.566406 822.078125 328.429688 822.9375 329.582031 C 823.796875 330.738281 824.382812 332.207031 824.691406 333.988281 L 823.335938 333.632812 L 823.335938 315.949219 L 829.820312 315.949219 L 829.820312 352.5 L 823.335938 352.5 L 823.335938 345.578125 L 824.898438 344.824219 C 824.464844 346.871094 823.785156 348.496094 822.855469 349.691406 C 821.925781 350.886719 820.859375 351.738281 819.660156 352.25 C 818.460938 352.761719 817.21875 353.015625 815.933594 353.015625 Z M 817.703125 347.035156 C 818.984375 347.035156 820.085938 346.726562 821.011719 346.109375 C 821.941406 345.488281 822.65625 344.617188 823.164062 343.492188 C 823.671875 342.367188 823.925781 341.050781 823.925781 339.546875 C 823.925781 338.042969 823.671875 336.734375 823.164062 335.621094 C 822.65625 334.503906 821.941406 333.636719 821.011719 333.019531 C 820.085938 332.398438 818.984375 332.089844 817.703125 332.089844 C 816.445312 332.089844 815.34375 332.394531 814.398438 333.003906 C 813.457031 333.609375 812.726562 334.472656 812.214844 335.589844 C 811.699219 336.703125 811.441406 338.023438 811.441406 339.546875 C 811.441406 341.070312 811.699219 342.398438 812.214844 343.523438 C 812.726562 344.648438 813.457031 345.515625 814.398438 346.125 C 815.34375 346.734375 816.445312 347.035156 817.703125 347.035156 Z M 817.703125 347.035156 " fill-opacity="1" fill-rule="nonzero"/><g clip-path="url(#9b93fee0ee)"><path fill="#0075db" d="M 306.085938 103.777344 L 513.222656 103.777344 L 513.222656 135.429688 L 306.085938 135.429688 Z M 306.085938 103.777344 " fill-opacity="1" fill-rule="nonzero"/></g><g clip-path="url(#b56d70a2ef)"><path fill="#6949df" d="M 306.085938 151.257812 L 554.359375 151.257812 L 554.359375 182.914062 L 306.085938 182.914062 Z M 306.085938 151.257812 " fill-opacity="1" fill-rule="nonzero"/></g><g clip-path="url(#f75b1c9569)"><path fill="#ffb700" d="M 306.085938 198.738281 L 403.324219 198.738281 L 403.324219 230.394531 L 306.085938 230.394531 Z M 306.085938 198.738281 " fill-opacity="1" fill-rule="nonzero"/></g><g clip-path="url(#68260dc92c)"><path stroke-linecap="butt" transform="matrix(2.876881, 0, 0, 2.877637, 306.08648, 103.777216)" fill="none" stroke-linejoin="miter" d="M 72.099382 0.100496 L 99.900488 0.100496 L 99.900488 10.900374 L 72.099382 10.900374 Z M 72.099382 0.100496 " stroke="#1d1d1b" stroke-width="0.2" stroke-opacity="1" stroke-miterlimit="10"/></g><g clip-path="url(#3e316e9de8)"><path stroke-linecap="butt" transform="matrix(2.876881, 0, 0, 2.877637, 306.08648, 103.777216)" fill="none" stroke-linejoin="miter" d="M 86.399809 16.60031 L 99.900488 16.60031 L 99.900488 27.400189 L 86.399809 27.400189 Z M 86.399809 16.60031 " stroke="#1d1d1b" stroke-width="0.2" stroke-opacity="1" stroke-miterlimit="10"/></g><g clip-path="url(#357c92f00b)"><path stroke-linecap="butt" transform="matrix(2.876881, 0, 0, 2.877637, 306.08648, 103.777216)" fill="none" stroke-linejoin="miter" d="M 33.900188 33.100125 L 99.900488 33.100125 L 99.900488 43.900003 L 33.900188 43.900003 Z M 33.900188 33.100125 " stroke="#1d1d1b" stroke-width="0.2" stroke-opacity="1" stroke-miterlimit="10"/></g></svg>