<svg xmlns="http://www.w3.org/2000/svg" width="1200" height="630" viewBox="0 0 1200 630"><g fill="none" fill-rule="evenodd"><rect width="1200" height="630" fill="#F6F5F9"/><rect width="1190" height="620" x="5" y="5" fill="#F6F5F9" stroke="#43398C" stroke-width="10"/><g fill-rule="nonzero" transform="translate(408.147 138.5)"><polygon fill="#9BE6F2" points="0 0 276.545 0 276.545 42.25 0 42.25"/><polygon fill="#6979D1" points="0 63.375 331.47 63.375 331.47 105.625 0 105.625"/><polygon fill="#FFB700" points="0 126.75 129.823 126.75 129.823 169 0 169"/><path fill="#FFF" stroke="#1D1D1B" stroke-width=".2" d="M276.929545,0.384090909 L383.706818,0.384090909 L383.706818,41.8659091 L276.929545,41.8659091 L276.929545,0.384090909 Z M331.854545,63.7590909 L383.706818,63.7590909 L383.706818,105.240909 L331.854545,105.240909 L331.854545,63.7590909 Z M130.206818,127.134091 L383.706818,127.134091 L383.706818,168.615909 L130.206818,168.615909 L130.206818,127.134091 Z" opacity=".989"/></g><path fill="#43398C" fill-rule="nonzero" d="M23.3373437 50.973125C18.7173437 50.973125 14.6529687 49.9107292 11.1442187 47.7859375 7.63546875 45.6611458 4.90091146 42.6861458 2.94054687 38.8609375.980182292 35.0357292-1.42108547e-14 30.5892708-1.42108547e-14 25.5215625-1.42108547e-14 20.4071875.980182292 15.9373958 2.94054687 12.1121875 4.90091146 8.28697917 7.63546875 5.31197917 11.1442187 3.1871875 14.6529687 1.06239583 18.7173437 0 23.3373437 0 28.0229687 0 32.1250781 1.05692708 35.6436719 3.17078125 39.1622656 5.28463542 41.9015625 8.25252604 43.8615625 12.0744531 45.8215625 15.8963802 46.8015625 20.37875 46.8015625 25.5215625 46.8015625 30.6177083 45.8098958 35.0767448 43.8265625 38.8986719 41.8432292 42.720599 39.0922656 45.6884896 35.5736719 47.8023438 32.0550781 49.9161979 27.9763021 50.973125 23.3373437 50.973125ZM23.3253125 42.3215625C26.2922917 42.3215625 28.8385417 41.6317708 30.9640625 40.2521875 33.0895833 38.8726042 34.7393229 36.9248177 35.9132812 34.4088281 37.0872396 31.8928385 37.6742187 28.9304167 37.6742187 25.5215625 37.6742187 22.0704167 37.0861458 19.0861198 35.91 16.5686719 34.7338542 14.051224 33.0811979 12.1023438 30.9520312 10.7220313 28.8228646 9.34171875 26.2777083 8.6515625 23.3165625 8.6515625 20.4370833 8.6515625 17.92 9.33005208 15.7653125 10.6870313 13.610625 12.0440104 11.9539583 13.9783073 10.7953125 16.4899219 9.63666667 19.0015365 9.05734375 22.010625 9.05734375 25.5171875 9.05734375 28.9829167 9.63666667 31.9715885 10.7953125 34.4832031 11.9539583 36.9948177 13.6104427 38.9291146 15.7647656 40.2860938 17.9190885 41.6430729 20.4392708 42.3215625 23.3253125 42.3215625ZM53.8580017 64.1615625 53.8580017 15.3715625 62.5095642 15.3715625 62.5095642 24.6115625 60.4522205 25.34C61.0588871 22.5771875 61.9710746 20.428151 63.188783 18.8928906 64.4064913 17.3576302 65.8157882 16.2726302 67.4166736 15.6378906 69.017559 15.003151 70.6765955 14.6857813 72.393783 14.6857813 75.4365955 14.6857813 78.0592257 15.4674479 80.2616736 17.0307813 82.4641215 18.5941146 84.1557882 20.7314844 85.3366736 23.4428906 86.517559 26.1542969 87.1080017 29.2271875 87.1080017 32.6615625 87.1080017 36.3948958 86.4499288 39.6032292 85.133783 42.2865625 83.8176371 44.9698958 82.0466736 47.0208594 79.8208923 48.4394531 77.5951111 49.8580469 75.119408 50.5673438 72.393783 50.5673438 70.5643038 50.5673438 68.8352673 50.19875 67.2066736 49.4615625 65.5780798 48.724375 64.1944861 47.5927083 63.0558923 46.0665625 61.9172986 44.5404167 61.1332621 42.6106771 60.703783 40.2773438L62.5095642 40.5573438 62.5095642 64.1615625 53.8580017 64.1615625ZM70.0280017 42.6157812C71.73571 42.6157812 73.2126371 42.2098177 74.458783 41.3978906 75.7049288 40.5859635 76.6710746 39.4285938 77.3572205 37.9257813 78.0433663 36.4229688 78.3864392 34.6682292 78.3864392 32.6615625 78.3864392 30.6271875 78.0433663 28.8585938 77.3572205 27.3557813 76.6710746 25.8529688 75.7049288 24.695599 74.458783 23.8836719 73.2126371 23.0717448 71.73571 22.6657813 70.0280017 22.6657813 68.3480017 22.6657813 66.882559 23.0786719 65.6316736 23.9044531 64.3807882 24.7302344 63.4170121 25.8876042 62.7403455 27.3765625 62.0636788 28.8655208 61.7253455 30.6271875 61.7253455 32.6615625 61.7253455 34.6682292 62.0636788 36.4158594 62.7403455 37.9044531 63.4170121 39.3930469 64.3807882 40.5504167 65.6316736 41.3765625 66.882559 42.2027083 68.3480017 42.6157812 70.0280017 42.6157812ZM109.466038 50.5673438C106.479371 50.5673438 103.907965 50.0844531 101.751819 49.1186719 99.595673 48.1528906 97.8316366 46.8321875 96.4597095 45.1565625 95.0877824 43.4809375 94.077522 41.5814583 93.4289282 39.458125 92.7803345 37.3347917 92.4560376 35.1254167 92.4560376 32.83 92.4560376 30.59 92.7755949 28.3919271 93.4147095 26.2357813 94.0538241 24.0796354 95.0290845 22.1334896 96.3404907 20.3973438 97.651897 18.6611979 99.350673 17.2752344 101.436819 16.2394531 103.522965 15.2036719 106.012704 14.6857813 108.906038 14.6857813 111.593746 14.6857813 113.940933 15.1407813 115.9476 16.0507813 117.954267 16.9607813 119.618043 18.223151 120.938928 19.8378906 122.259814 21.4526302 123.25148 23.3238542 123.913928 25.4515625 124.576376 27.5792708 124.9076 29.8611979 124.9076 32.2973438 124.9076 32.6524479 124.895933 33.1192969 124.8726 33.6978906 124.849267 34.2764844 124.790933 34.8924479 124.6976 35.5457813L101.150256 35.5457813C101.374111 38.0096354 102.291038 39.8668229 103.901038 41.1173438 105.511038 42.3678646 107.515152 42.993125 109.913381 42.993125 111.724631 42.993125 113.460777 42.6876042 115.121819 42.0765625 116.782861 41.4655208 118.266715 40.5624479 119.573381 39.3673438L123.913381 45.2757813C122.317965 46.5452604 120.792183 47.5695573 119.336038 48.3486719 117.879892 49.1277865 116.370152 49.6923438 114.806819 50.0423438 113.243486 50.3923438 111.463225 50.5673438 109.466038 50.5673438ZM116.340256 31.1915625C116.43359 30.8182292 116.505777 30.4448958 116.556819 30.0715625 116.607861 29.6982292 116.633381 29.33875 116.633381 28.993125 116.633381 28.013125 116.456194 27.0961979 116.101819 26.2423438 115.747444 25.3884896 115.24122 24.6396354 114.583147 23.9957813 113.925074 23.3519271 113.133928 22.8455208 112.209709 22.4765625 111.285491 22.1076042 110.244788 21.923125 109.0876 21.923125 107.360933 21.923125 105.921376 22.2778646 104.768928 22.9873438 103.61648 23.6968229 102.74148 24.597526 102.143928 25.6894531 101.546376 26.7813802 101.1776 27.9248958 101.0376 29.12L119.223381 29.12 116.340256 31.1915625ZM131.950034 49.8815625 131.950034 15.3715625 140.671597 15.3715625 140.671597 23.183125 139.271597 23.38C139.868784 21.2705208 140.755451 19.5834115 141.931597 18.3186719 143.107743 17.0539323 144.468185 16.1322656 146.012925 15.5536719 147.557664 14.9750781 149.146701 14.6857813 150.780034 14.6857813 154.700034 14.6857813 157.761258 15.7941146 159.963706 18.0107813 162.166154 20.2274479 163.267378 23.3377083 163.267378 27.3415625L163.267378 49.8815625 154.545815 49.8815625 154.545815 30.5615625C154.545815 27.6777083 154.030112 25.5684115 152.998706 24.2336719 151.9673 22.8989323 150.35493 22.2315625 148.161597 22.2315625 146.500555 22.2315625 145.116961 22.6189323 144.010815 23.3936719 142.90467 24.1684115 142.071597 25.3748177 141.511597 27.0128906 140.951597 28.6509635 140.671597 30.7577083 140.671597 33.333125L140.671597 49.8815625 131.950034 49.8815625ZM190.063766 49.8815625 190.063766 1.0915625 204.287985 1.0915625C212.379547 1.0915625 218.646735 3.24296875 223.089547 7.54578125 227.53236 11.8485938 229.753766 17.9571875 229.753766 25.8715625 229.753766 33.6182292 227.562802 39.5565625 223.180875 43.6865625 218.798948 47.8165625 212.477985 49.8815625 204.217985 49.8815625L190.063766 49.8815625ZM199.122203 41.5657813 203.322203 41.5657813C206.970953 41.5657813 210.085771 41.094375 212.666656 40.1515625 215.247542 39.20875 217.219391 37.5683073 218.582203 35.2302344 219.945016 32.8921615 220.626422 29.6606771 220.626422 25.5357813 220.626422 21.4940104 219.965979 18.2947917 218.645094 15.938125 217.324209 13.5814583 215.434026 11.9038281 212.974547 10.9052344 210.515068 9.90664063 207.568141 9.40734375 204.133766 9.40734375L199.122203 9.40734375 199.122203 41.5657813ZM258.901571 49.8815625 258.230009 44.673125 258.230009 28.083125C258.230009 26.0392708 257.585972 24.5180469 256.297899 23.5194531 255.009826 22.5208594 253.269123 22.0215625 251.07579 22.0215625 249.236831 22.0215625 247.374722 22.3784896 245.489462 23.0923437 243.604201 23.8061979 241.933498 24.8211979 240.477352 26.1373438L236.081571 20.23C238.498759 18.2415625 240.979019 16.8204167 243.522352 15.9665625 246.065686 15.1127083 248.821571 14.6857813 251.790009 14.6857813 256.540529 14.6857813 260.24342 15.8734115 262.89868 18.2486719 265.553941 20.6239323 266.881571 23.9020833 266.881571 28.083125L266.881571 49.8815625 258.901571 49.8815625ZM248.500009 50.5673438C245.970529 50.5673438 243.709384 50.0983073 241.716571 49.1602344 239.723759 48.2221615 238.160425 46.8945313 237.026571 45.1773438 235.892717 43.4601563 235.32579 41.4720833 235.32579 39.213125 235.32579 37.244375 235.738863 35.5459635 236.565009 34.1178906 237.391154 32.6898177 238.480894 31.5882292 239.834227 30.813125 240.962977 30.1320833 242.246128 29.6468229 243.68368 29.3573438 245.121233 29.0678646 246.647196 28.923125 248.261571 28.923125L258.957352 28.923125 258.957352 35.3773438 249.521571 35.3773438C248.774904 35.3773438 248.044644 35.4427865 247.33079 35.5736719 246.616936 35.7045573 245.993863 35.9610417 245.461571 36.343125 245.023342 36.6697917 244.678081 37.078125 244.42579 37.568125 244.173498 38.058125 244.047352 38.6159375 244.047352 39.2415625 244.047352 40.5577083 244.563055 41.6053385 245.594462 42.3844531 246.625868 43.1635677 248.004904 43.553125 249.731571 43.553125 251.28105 43.553125 252.697456 43.2147917 253.98079 42.538125 255.264123 41.8614583 256.29316 40.9304948 257.067899 39.7452344 257.842639 38.559974 258.230009 37.2115625 258.230009 35.7L260.554227 40.2773438C259.909644 42.6945313 258.973759 44.6638281 257.746571 46.1852344 256.519384 47.7066406 255.114826 48.8173437 253.532899 49.5173438 251.950972 50.2173438 250.273342 50.5673438 248.500009 50.5673438ZM288.147335 50.5673438C286.318585 50.5673438 284.606137 50.2173438 283.009991 49.5173438 281.413846 48.8173437 280.137439 47.6763802 279.180773 46.0944531 278.224106 44.512526 277.745773 42.4010417 277.745773 39.76L277.745773 7.35 286.537335 2.603125 286.537335 37.3373438C286.537335 39.3345313 286.812778 40.8511979 287.363663 41.8873438 287.914549 42.9234896 288.969106 43.4415625 290.527335 43.4415625 290.994002 43.4415625 291.526111 43.3901563 292.123663 43.2873438 292.721215 43.1845313 293.365252 43.0397917 294.055773 42.853125L294.055773 49.5315625C293.085252 49.8859375 292.109991 50.1471615 291.129991 50.3152344 290.149991 50.4833073 289.155773 50.5673438 288.147335 50.5673438ZM271.445773 22.133125 271.445773 15.3715625 294.055773 15.3715625 294.055773 22.133125 271.445773 22.133125ZM322.811494 49.8815625 322.139932 44.673125 322.139932 28.083125C322.139932 26.0392708 321.495895 24.5180469 320.207822 23.5194531 318.919749 22.5208594 317.179046 22.0215625 314.985713 22.0215625 313.146755 22.0215625 311.284645 22.3784896 309.399385 23.0923437 307.514124 23.8061979 305.843421 24.8211979 304.387275 26.1373438L299.991494 20.23C302.408682 18.2415625 304.888942 16.8204167 307.432275 15.9665625 309.975609 15.1127083 312.731494 14.6857813 315.699932 14.6857813 320.450452 14.6857813 324.153343 15.8734115 326.808604 18.2486719 329.463864 20.6239323 330.791494 23.9020833 330.791494 28.083125L330.791494 49.8815625 322.811494 49.8815625ZM312.409932 50.5673438C309.880452 50.5673438 307.619307 50.0983073 305.626494 49.1602344 303.633682 48.2221615 302.070348 46.8945313 300.936494 45.1773438 299.80264 43.4601563 299.235713 41.4720833 299.235713 39.213125 299.235713 37.244375 299.648786 35.5459635 300.474932 34.1178906 301.301077 32.6898177 302.390817 31.5882292 303.74415 30.813125 304.8729 30.1320833 306.156051 29.6468229 307.593604 29.3573438 309.031156 29.0678646 310.557119 28.923125 312.171494 28.923125L322.867275 28.923125 322.867275 35.3773438 313.431494 35.3773438C312.684827 35.3773438 311.954567 35.4427865 311.240713 35.5736719 310.526859 35.7045573 309.903786 35.9610417 309.371494 36.343125 308.933265 36.6697917 308.588005 37.078125 308.335713 37.568125 308.083421 38.058125 307.957275 38.6159375 307.957275 39.2415625 307.957275 40.5577083 308.472979 41.6053385 309.504385 42.3844531 310.535791 43.1635677 311.914827 43.553125 313.641494 43.553125 315.190973 43.553125 316.60738 43.2147917 317.890713 42.538125 319.174046 41.8614583 320.203083 40.9304948 320.977822 39.7452344 321.752562 38.559974 322.139932 37.2115625 322.139932 35.7L324.46415 40.2773438C323.819567 42.6945313 322.883682 44.6638281 321.656494 46.1852344 320.429307 47.7066406 319.024749 48.8173437 317.442822 49.5173438 315.860895 50.2173438 314.183265 50.5673438 312.409932 50.5673438ZM357.545696 49.8815625 357.545696 1.0915625 373.659915 1.0915625C377.617102 1.0915625 380.813769 1.66796875 383.249915 2.82078125 385.68606 3.97359375 387.47343 5.61166667 388.612024 7.735 389.750618 9.85833333 390.319915 12.3571875 390.319915 15.2315625 390.319915 19.7115625 389.041139 23.1718229 386.483586 25.6123438 383.926034 28.0528646 380.290592 29.4273438 375.577258 29.7357813 374.513404 29.7540104 373.421477 29.763125 372.301477 29.763125 371.181477 29.763125 370.22481 29.763125 369.431477 29.763125L366.604133 29.763125 366.604133 49.8815625 357.545696 49.8815625ZM384.047258 49.8815625 371.797258 28.7415625 381.079915 27.6357813 394.519915 49.8815625 384.047258 49.8815625ZM366.604133 21.7 372.735696 21.7C374.294654 21.7 375.71343 21.525 376.992024 21.175 378.270618 20.825 379.301842 20.1902604 380.085696 19.2707813 380.86955 18.3513021 381.261477 17.0420833 381.261477 15.343125 381.261477 13.6259375 380.86955 12.3263802 380.085696 11.4444531 379.301842 10.562526 378.265878 9.96515625 376.977805 9.65234375 375.689732 9.33953125 374.275696 9.183125 372.735696 9.183125L366.604133 9.183125 366.604133 21.7ZM421.847446 49.8815625 421.175884 44.673125 421.175884 28.083125C421.175884 26.0392708 420.531847 24.5180469 419.243774 23.5194531 417.955701 22.5208594 416.214998 22.0215625 414.021665 22.0215625 412.182707 22.0215625 410.320597 22.3784896 408.435337 23.0923437 406.550076 23.8061979 404.879373 24.8211979 403.423228 26.1373438L399.027446 20.23C401.444634 18.2415625 403.924894 16.8204167 406.468228 15.9665625 409.011561 15.1127083 411.767446 14.6857813 414.735884 14.6857813 419.486405 14.6857813 423.189295 15.8734115 425.844556 18.2486719 428.499816 20.6239323 429.827446 23.9020833 429.827446 28.083125L429.827446 49.8815625 421.847446 49.8815625ZM411.445884 50.5673438C408.916405 50.5673438 406.655259 50.0983073 404.662446 49.1602344 402.669634 48.2221615 401.1063 46.8945313 399.972446 45.1773438 398.838592 43.4601563 398.271665 41.4720833 398.271665 39.213125 398.271665 37.244375 398.684738 35.5459635 399.510884 34.1178906 400.33703 32.6898177 401.426769 31.5882292 402.780103 30.813125 403.908853 30.1320833 405.192004 29.6468229 406.629556 29.3573438 408.067108 29.0678646 409.593071 28.923125 411.207446 28.923125L421.903228 28.923125 421.903228 35.3773438 412.467446 35.3773438C411.72078 35.3773438 410.990519 35.4427865 410.276665 35.5736719 409.562811 35.7045573 408.939738 35.9610417 408.407446 36.343125 407.969217 36.6697917 407.623957 37.078125 407.371665 37.568125 407.119373 38.058125 406.993228 38.6159375 406.993228 39.2415625 406.993228 40.5577083 407.508931 41.6053385 408.540337 42.3844531 409.571743 43.1635677 410.95078 43.553125 412.677446 43.553125 414.226925 43.553125 415.643332 43.2147917 416.926665 42.538125 418.209998 41.8614583 419.239035 40.9304948 420.013774 39.7452344 420.788514 38.559974 421.175884 37.2115625 421.175884 35.7L423.500103 40.2773438C422.855519 42.6945313 421.919634 44.6638281 420.692446 46.1852344 419.465259 47.7066406 418.060701 48.8173437 416.478774 49.5173438 414.896847 50.2173438 413.219217 50.5673438 411.445884 50.5673438ZM437.975867 49.8815625 437.975867 15.3715625 446.697429 15.3715625 446.697429 23.183125 445.297429 23.38C445.894617 21.2705208 446.781283 19.5834115 447.957429 18.3186719 449.133575 17.0539323 450.494018 16.1322656 452.038757 15.5536719 453.583497 14.9750781 455.172533 14.6857813 456.805867 14.6857813 460.725867 14.6857813 463.787091 15.7941146 465.989539 18.0107813 468.191986 20.2274479 469.29321 23.3377083 469.29321 27.3415625L469.29321 49.8815625 460.571648 49.8815625 460.571648 30.5615625C460.571648 27.6777083 460.055945 25.5684115 459.024539 24.2336719 457.993132 22.8989323 456.380763 22.2315625 454.187429 22.2315625 452.526388 22.2315625 451.142794 22.6189323 450.036648 23.3936719 448.930502 24.1684115 448.097429 25.3748177 447.537429 27.0128906 446.977429 28.6509635 446.697429 30.7577083 446.697429 33.333125L446.697429 49.8815625 437.975867 49.8815625ZM500.83538 49.8815625 490.868036 34.1173438 485.463817 40.18 485.463817 29.273125 498.66538 15.3715625 509.739598 15.3715625 497.223817 28.28 511.181161 49.8815625 500.83538 49.8815625ZM477.483817 49.8815625 477.483817 1.0915625 486.20538 1.0915625 486.20538 49.8815625 477.483817 49.8815625ZM516.57152 49.8815625 516.57152 15.3715625 525.25152 15.3715625 525.25152 49.8815625 516.57152 49.8815625ZM516.29152 10.0515625 516.29152 1.0915625 525.60152 1.0915625 525.60152 10.0515625 516.29152 10.0515625ZM533.819684 49.8815625 533.819684 15.3715625 542.541246 15.3715625 542.541246 23.183125 541.141246 23.38C541.738434 21.2705208 542.625101 19.5834115 543.801246 18.3186719 544.977392 17.0539323 546.337835 16.1322656 547.882574 15.5536719 549.427314 14.9750781 551.016351 14.6857813 552.649684 14.6857813 556.569684 14.6857813 559.630908 15.7941146 561.833356 18.0107813 564.035804 20.2274479 565.137028 23.3377083 565.137028 27.3415625L565.137028 49.8815625 556.415465 49.8815625 556.415465 30.5615625C556.415465 27.6777083 555.899762 25.5684115 554.868356 24.2336719 553.836949 22.8989323 552.22458 22.2315625 550.031246 22.2315625 548.370205 22.2315625 546.986611 22.6189323 545.880465 23.3936719 544.774319 24.1684115 543.941246 25.3748177 543.381246 27.0128906 542.821246 28.6509635 542.541246 30.7577083 542.541246 33.333125L542.541246 49.8815625 533.819684 49.8815625ZM587.887634 64.8757813C582.744822 64.8757813 578.691749 63.9586719 575.728416 62.1244531 572.765082 60.2902344 571.283416 57.7773438 571.283416 54.5857813 571.283416 54.2963021 571.302009 53.9579688 571.339197 53.5707813 571.376384 53.1835938 571.441645 52.7985938 571.534978 52.4157813L581.237634 46.3957813 583.393416 48.803125 578.997634 54.2215625C578.950968 54.3520833 578.927634 54.4663802 578.927634 54.5644531 578.927634 54.662526 578.927634 54.7677083 578.927634 54.88 578.927634 56.1582292 579.746671 57.1473438 581.384744 57.8473438 583.022817 58.5473438 585.190447 58.8973438 587.887634 58.8973438 590.145863 58.8973438 591.891124 58.6056771 593.123416 58.0223438 594.355707 57.4390104 594.971853 56.5968229 594.971853 55.4957813 594.971853 54.8985938 594.80141 54.4133333 594.460525 54.04 594.119639 53.6666667 593.573494 53.3585938 592.822087 53.1157812 592.070681 52.8729688 591.102348 52.6558594 589.917087 52.4644531 588.731827 52.2730469 587.299197 52.0748958 585.619197 51.87 583.491488 51.59875 581.400968 51.1528646 579.347634 50.5323438 577.294301 49.9118229 575.590968 48.9832292 574.237634 47.7465625 572.884301 46.5098958 572.207634 44.8648958 572.207634 42.8115625 572.207634 40.9820833 572.835264 39.3066406 574.090525 37.7852344 575.345785 36.2638281 577.004822 35.0178646 579.067634 34.0473438L583.224978 37.4215625C582.002895 37.6271875 581.072113 38.0519271 580.432634 38.6957813 579.793155 39.3396354 579.473416 40.1001563 579.473416 40.9773438 579.473416 41.7240104 579.774379 42.3213802 580.376306 42.7694531 580.978233 43.217526 581.839197 43.5582292 582.959197 43.7915625 584.079197 44.0248958 585.409197 44.244375 586.949197 44.45 589.357634 44.7482292 591.576853 45.0840104 593.606853 45.4573438 595.636853 45.8306771 597.403077 46.3556771 598.905525 47.0323438 600.407973 47.7090104 601.56516 48.6330469 602.377087 49.8044531 603.189014 50.9758594 603.594978 52.4996354 603.594978 54.3757813 603.594978 57.7729688 602.232348 60.3722656 599.507087 62.1736719 596.781827 63.9750781 592.908676 64.8757813 587.887634 64.8757813ZM587.173416 40.2357813C584.289561 40.2357813 581.757895 39.6874479 579.578416 38.5907813 577.398936 37.4941146 575.70253 35.9936719 574.489197 34.0894531 573.275863 32.1852344 572.669197 30.0106771 572.669197 27.5657813 572.669197 24.9706771 573.313233 22.7095313 574.601306 20.7823438 575.889379 18.8551563 577.618416 17.3572656 579.788416 16.2886719 581.958416 15.2200781 584.322009 14.6857813 586.879197 14.6857813 589.418155 14.6857813 591.767895 15.2200781 593.928416 16.2886719 596.088936 17.3572656 597.831827 18.8808594 599.157087 20.8594531 600.482348 22.8380469 601.144978 25.1715625 601.144978 27.86 601.144978 30.3515625 600.557087 32.5261198 599.381306 34.3836719 598.205525 36.241224 596.567634 37.6809635 594.467634 38.7028906 592.367634 39.7248177 589.936228 40.2357813 587.173416 40.2357813ZM586.991853 33.3473438C588.849041 33.3473438 590.230264 32.7756771 591.135525 31.6323438 592.040785 30.4890104 592.493416 29.1148958 592.493416 27.51 592.493416 25.8205208 591.998676 24.453151 591.009197 23.4078906 590.019718 22.3626302 588.680603 21.84 586.991853 21.84 585.255707 21.84 583.883598 22.3671875 582.875525 23.4215625 581.867452 24.4759375 581.363416 25.8292708 581.363416 27.4815625 581.363416 29.1054167 581.830082 30.4890104 582.763416 31.6323438 583.696749 32.7756771 585.106228 33.3473438 586.991853 33.3473438ZM598.821853 22.6515625 592.534978 18.6057813 600.529197 12.2073438 604.967634 17.5973438 598.821853 22.6515625ZM628.501392 49.8815625 628.501392 1.0915625 642.72561 1.0915625C650.817173 1.0915625 657.08436 3.24296875 661.527173 7.54578125 665.969985 11.8485938 668.191392 17.9571875 668.191392 25.8715625 668.191392 33.6182292 666.000428 39.5565625 661.618501 43.6865625 657.236574 47.8165625 650.91561 49.8815625 642.65561 49.8815625L628.501392 49.8815625ZM637.559829 41.5657813 641.759829 41.5657813C645.408579 41.5657813 648.523397 41.094375 651.104282 40.1515625 653.685168 39.20875 655.657017 37.5683073 657.019829 35.2302344 658.382642 32.8921615 659.064048 29.6606771 659.064048 25.5357813 659.064048 21.4940104 658.403605 18.2947917 657.08272 15.938125 655.761834 13.5814583 653.871652 11.9038281 651.412173 10.9052344 648.952694 9.90664063 646.005767 9.40734375 642.571392 9.40734375L637.559829 9.40734375 637.559829 41.5657813ZM690.647634 50.5673438C687.660968 50.5673438 685.089561 50.0844531 682.933416 49.1186719 680.77727 48.1528906 679.013233 46.8321875 677.641306 45.1565625 676.269379 43.4809375 675.259119 41.5814583 674.610525 39.458125 673.961931 37.3347917 673.637634 35.1254167 673.637634 32.83 673.637634 30.59 673.957192 28.3919271 674.596306 26.2357813 675.235421 24.0796354 676.210681 22.1334896 677.522087 20.3973438 678.833494 18.6611979 680.53227 17.2752344 682.618416 16.2394531 684.704561 15.2036719 687.194301 14.6857813 690.087634 14.6857813 692.775343 14.6857813 695.12253 15.1407813 697.129197 16.0507813 699.135863 16.9607813 700.799639 18.223151 702.120525 19.8378906 703.44141 21.4526302 704.433077 23.3238542 705.095525 25.4515625 705.757973 27.5792708 706.089197 29.8611979 706.089197 32.2973438 706.089197 32.6524479 706.07753 33.1192969 706.054197 33.6978906 706.030863 34.2764844 705.97253 34.8924479 705.879197 35.5457813L682.331853 35.5457813C682.555707 38.0096354 683.472634 39.8668229 685.082634 41.1173438 686.692634 42.3678646 688.696749 42.993125 691.094978 42.993125 692.906228 42.993125 694.642374 42.6876042 696.303416 42.0765625 697.964457 41.4655208 699.448311 40.5624479 700.754978 39.3673438L705.094978 45.2757813C703.499561 46.5452604 701.97378 47.5695573 700.517634 48.3486719 699.061488 49.1277865 697.551749 49.6923438 695.988416 50.0423438 694.425082 50.3923438 692.644822 50.5673438 690.647634 50.5673438ZM697.521853 31.1915625C697.615186 30.8182292 697.687374 30.4448958 697.738416 30.0715625 697.789457 29.6982292 697.814978 29.33875 697.814978 28.993125 697.814978 28.013125 697.637791 27.0961979 697.283416 26.2423438 696.929041 25.3884896 696.422817 24.6396354 695.764744 23.9957813 695.106671 23.3519271 694.315525 22.8455208 693.391306 22.4765625 692.467087 22.1076042 691.426384 21.923125 690.269197 21.923125 688.54253 21.923125 687.102973 22.2778646 685.950525 22.9873438 684.798077 23.6968229 683.923077 24.597526 683.325525 25.6894531 682.727973 26.7813802 682.359197 27.9248958 682.219197 29.12L700.404978 29.12 697.521853 31.1915625ZM725.297412 50.5673438C722.487933 50.5673438 720.145303 50.0097135 718.269521 48.8944531 716.39374 47.7791927 714.99848 46.1996354 714.08374 44.1557813 713.169001 42.1119271 712.711631 39.6991146 712.711631 36.9173438L712.711631 15.3715625 721.40585 15.3715625 721.40585 34.7757813C721.40585 36.3624479 721.592516 37.7741146 721.96585 39.0107813 722.339183 40.2474479 722.997074 41.2203385 723.939521 41.9294531 724.881969 42.6385677 726.202673 42.993125 727.901631 42.993125 729.954964 42.993125 731.506631 42.4192708 732.556631 41.2715625 733.606631 40.1238542 734.327594 38.5045573 734.719521 36.4136719 735.111449 34.3227865 735.307412 31.8773438 735.307412 29.0773438L735.307412 15.3715625 744.001631 15.3715625 744.001631 49.8815625 735.307412 49.8815625 735.307412 42.4057813 736.52585 43.12C735.461266 45.7705208 733.932751 47.674375 731.940303 48.8315625 729.947855 49.98875 727.733558 50.5673438 725.297412 50.5673438ZM765.756925 50.5673438C763.928175 50.5673438 762.215727 50.2173438 760.619581 49.5173438 759.023435 48.8173437 757.747029 47.6763802 756.790363 46.0944531 755.833696 44.512526 755.355363 42.4010417 755.355363 39.76L755.355363 7.35 764.146925 2.603125 764.146925 37.3373438C764.146925 39.3345313 764.422368 40.8511979 764.973253 41.8873438 765.524139 42.9234896 766.578696 43.4415625 768.136925 43.4415625 768.603592 43.4415625 769.135701 43.3901563 769.733253 43.2873438 770.330805 43.1845313 770.974842 43.0397917 771.665363 42.853125L771.665363 49.5315625C770.694842 49.8859375 769.719581 50.1471615 768.739581 50.3152344 767.759581 50.4833073 766.765363 50.5673438 765.756925 50.5673438ZM749.055363 22.133125 749.055363 15.3715625 771.665363 15.3715625 771.665363 22.133125 749.055363 22.133125ZM790.285303 50.5673438C787.728115 50.5673438 785.488115 50.1963802 783.565303 49.4544531 781.64249 48.712526 780.023193 47.7863021 778.707412 46.6757813 777.391631 45.5652604 776.322855 44.4966667 775.501084 43.47L781.436865 38.29C782.268115 39.5871875 783.41874 40.7864844 784.88874 41.8878906 786.35874 42.9892969 788.180928 43.54 790.355303 43.54 792.07249 43.54 793.416527 43.1921875 794.387412 42.4965625 795.358298 41.8009375 795.84374 40.9540104 795.84374 39.9557813 795.84374 39.0968229 795.530928 38.4061198 794.905303 37.8836719 794.279678 37.361224 793.453532 36.9155208 792.426865 36.5465625 791.400199 36.1776042 790.256865 35.8345312 788.996865 35.5173438 787.690199 35.1629688 786.343975 34.7453385 784.958193 34.2644531 783.572412 33.7835677 782.293818 33.158125 781.122412 32.388125 779.951006 31.618125 779.003636 30.6311979 778.280303 29.4273438 777.556969 28.2234896 777.195303 26.7210417 777.195303 24.92 777.195303 21.84875 778.387673 19.3752344 780.772412 17.4994531 783.157152 15.6236719 786.300042 14.6857813 790.201084 14.6857813 792.954417 14.6857813 795.458193 15.2270052 797.712412 16.3094531 799.966631 17.391901 801.742334 18.9740104 803.039521 21.0557813L797.66374 25.283125C796.785824 23.9582292 795.665641 22.9550781 794.303193 22.2736719 792.940745 21.5922656 791.489521 21.2515625 789.949521 21.2515625 788.605667 21.2515625 787.494964 21.5129688 786.617412 22.0357813 785.73986 22.5585938 785.301084 23.2491146 785.301084 24.1073438 785.301084 24.7234896 785.504157 25.2368229 785.910303 25.6473438 786.316449 26.0578646 786.976891 26.4242708 787.891631 26.7465625 788.80637 27.0688542 790.000928 27.4166667 791.475303 27.79 792.865824 28.1166667 794.307751 28.5133333 795.801084 28.98 797.294417 29.4466667 798.692048 30.0742969 799.993975 30.8628906 801.295902 31.6514844 802.353011 32.6991146 803.165303 34.0057813 803.977594 35.3124479 804.38374 36.9738542 804.38374 38.99 804.38374 41.2766667 803.798037 43.2926302 802.626631 45.0378906 801.455225 46.783151 799.812412 48.1410417 797.698193 49.1115625 795.583975 50.0820833 793.113011 50.5673438 790.285303 50.5673438ZM826.545516 50.5673438C823.754996 50.5673438 821.311923 50.0727865 819.216298 49.0836719 817.120673 48.0945573 815.368303 46.7505208 813.959188 45.0515625 812.550074 43.3526042 811.495516 41.4297917 810.795516 39.283125 810.095516 37.1364583 809.745516 34.9059375 809.745516 32.5915625 809.745516 30.2954167 810.095516 28.0740104 810.795516 25.9273438 811.495516 23.7806771 812.550074 21.864974 813.959188 20.1802344 815.368303 18.4954948 817.120673 17.1585677 819.216298 16.1694531 821.311923 15.1803385 823.754996 14.6857813 826.545516 14.6857813 830.036037 14.6857813 833.069371 15.5210417 835.645516 17.1915625 838.221662 18.8620833 840.134996 21.4148958 841.385516 24.85L833.78286 27.8457813C833.241818 26.1934896 832.394891 24.8447135 831.242079 23.7994531 830.089266 22.7541927 828.523746 22.2315625 826.545516 22.2315625 824.650412 22.2315625 823.103303 22.7332292 821.904188 23.7365625 820.705074 24.7398958 819.827886 26.0301563 819.272626 27.6073438 818.717365 29.1845313 818.439735 30.8459375 818.439735 32.5915625 818.439735 34.3371875 818.717365 36.0102604 819.272626 37.6107813 819.827886 39.2113021 820.705074 40.5084896 821.904188 41.5023438 823.103303 42.4961979 824.650412 42.993125 826.545516 42.993125 828.523746 42.993125 830.089266 42.4752344 831.242079 41.4394531 832.394891 40.4036719 833.241818 39.0505208 833.78286 37.38L841.385516 40.3757813C840.134996 43.8101563 838.221662 46.3673438 835.645516 48.0473438 833.069371 49.7273438 830.036037 50.5673438 826.545516 50.5673438ZM847.909504 49.8815625 847.909504 1.0915625 856.631067 1.0915625 856.631067 23.183125 855.203723 23.4073438C855.800911 21.2978646 856.696874 19.6061979 857.891614 18.3323438 859.086353 17.0584896 860.455911 16.1322656 862.000286 15.5536719 863.544661 14.9750781 865.1244 14.6857813 866.739504 14.6857813 870.659504 14.6857813 873.720728 15.7941146 875.923176 18.0107813 878.125624 20.2274479 879.226848 23.3377083 879.226848 27.3415625L879.226848 49.8815625 870.505286 49.8815625 870.505286 30.5615625C870.505286 27.6777083 869.989583 25.5684115 868.958176 24.2336719 867.92677 22.8989323 866.3144 22.2315625 864.121067 22.2315625 861.638254 22.2315625 859.769218 23.120599 858.513958 24.8986719 857.258697 26.6767448 856.631067 29.4882292 856.631067 33.333125L856.631067 49.8815625 847.909504 49.8815625ZM895.439017 50.5673438C893.087455 50.5673438 891.132194 49.8511198 889.573236 48.4186719 888.014278 46.986224 887.234799 44.7066667 887.234799 41.58L887.234799 1.0915625 895.887455 1.0915625 895.887455 39.8715625C895.887455 40.8326042 896.118418 41.5185677 896.580345 41.9294531 897.042273 42.3403385 897.64183 42.5457813 898.379017 42.5457813 898.771309 42.5457813 899.175085 42.5060417 899.590345 42.4265625 900.005606 42.3470833 900.43709 42.2420833 900.884799 42.1115625L900.884799 49.503125C899.923757 49.8859375 898.964903 50.1590104 898.008236 50.3223438 897.051569 50.4856771 896.195163 50.5673438 895.439017 50.5673438ZM928.940981 49.8815625 928.269419 44.673125 928.269419 28.083125C928.269419 26.0392708 927.625382 24.5180469 926.33731 23.5194531 925.049237 22.5208594 923.308534 22.0215625 921.1152 22.0215625 919.276242 22.0215625 917.414132 22.3784896 915.528872 23.0923437 913.643612 23.8061979 911.972909 24.8211979 910.516763 26.1373438L906.120981 20.23C908.538169 18.2415625 911.018429 16.8204167 913.561763 15.9665625 916.105096 15.1127083 918.860981 14.6857813 921.829419 14.6857813 926.57994 14.6857813 930.28283 15.8734115 932.938091 18.2486719 935.593351 20.6239323 936.920981 23.9020833 936.920981 28.083125L936.920981 49.8815625 928.940981 49.8815625ZM918.539419 50.5673438C916.00994 50.5673438 913.748794 50.0983073 911.755981 49.1602344 909.763169 48.2221615 908.199836 46.8945313 907.065981 45.1773438 905.932127 43.4601563 905.3652 41.4720833 905.3652 39.213125 905.3652 37.244375 905.778273 35.5459635 906.604419 34.1178906 907.430565 32.6898177 908.520304 31.5882292 909.873638 30.813125 911.002388 30.1320833 912.285539 29.6468229 913.723091 29.3573438 915.160643 29.0678646 916.686606 28.923125 918.300981 28.923125L928.996763 28.923125 928.996763 35.3773438 919.560981 35.3773438C918.814315 35.3773438 918.084054 35.4427865 917.3702 35.5736719 916.656346 35.7045573 916.033273 35.9610417 915.500981 36.343125 915.062752 36.6697917 914.717492 37.078125 914.4652 37.568125 914.212909 38.058125 914.086763 38.6159375 914.086763 39.2415625 914.086763 40.5577083 914.602466 41.6053385 915.633872 42.3844531 916.665278 43.1635677 918.044315 43.553125 919.770981 43.553125 921.320461 43.553125 922.736867 43.2147917 924.0202 42.538125 925.303534 41.8614583 926.33257 40.9304948 927.10731 39.7452344 927.882049 38.559974 928.269419 37.2115625 928.269419 35.7L930.593638 40.2773438C929.949054 42.6945313 929.013169 44.6638281 927.785981 46.1852344 926.558794 47.7066406 925.154237 48.8173437 923.57231 49.5173438 921.990382 50.2173438 920.312752 50.5673438 918.539419 50.5673438ZM945.069402 49.8815625 945.069402 15.3715625 953.790964 15.3715625 953.790964 23.183125 952.390964 23.38C952.988152 21.2705208 953.874819 19.5834115 955.050964 18.3186719 956.22711 17.0539323 957.587553 16.1322656 959.132292 15.5536719 960.677032 14.9750781 962.266069 14.6857813 963.899402 14.6857813 967.819402 14.6857813 970.880626 15.7941146 973.083074 18.0107813 975.285522 20.2274479 976.386746 23.3377083 976.386746 27.3415625L976.386746 49.8815625 967.665183 49.8815625 967.665183 30.5615625C967.665183 27.6777083 967.14948 25.5684115 966.118074 24.2336719 965.086667 22.8989323 963.474298 22.2315625 961.280964 22.2315625 959.619923 22.2315625 958.236329 22.6189323 957.130183 23.3936719 956.024037 24.1684115 955.190964 25.3748177 954.630964 27.0128906 954.070964 28.6509635 953.790964 30.7577083 953.790964 33.333125L953.790964 49.8815625 945.069402 49.8815625ZM997.681571 50.5673438C994.638759 50.5673438 992.015946 49.7856771 989.813134 48.2223438 987.610321 46.6590104 985.918654 44.5170833 984.738134 41.7965625 983.557613 39.0760417 982.967352 36.0077083 982.967352 32.5915625 982.967352 28.8115625 983.625243 25.5915625 984.941024 22.9315625 986.256805 20.2715625 988.034696 18.2322656 990.274696 16.8136719 992.514696 15.3950781 994.983654 14.6857813 997.681571 14.6857813 999.538759 14.6857813 1001.27472 15.0684115 1002.88946 15.8336719 1004.5042 16.5989323 1005.88561 17.7515625 1007.03368 19.2915625 1008.18175 20.8315625 1008.96105 22.7915625 1009.37157 25.1715625L1007.56579 24.6957813 1007.56579 1.0915625 1016.21735 1.0915625 1016.21735 49.8815625 1007.56579 49.8815625 1007.56579 40.6415625 1009.65157 39.633125C1009.07261 42.3682292 1008.16243 44.5336719 1006.92102 46.1294531 1005.67962 47.7252344 1004.25865 48.8638281 1002.65813 49.5452344 1001.05761 50.2266406 999.398759 50.5673438 997.681571 50.5673438ZM1000.04735 42.5873438C1001.75506 42.5873438 1003.22725 42.1744531 1004.46391 41.3486719 1005.70058 40.5228906 1006.65725 39.3585938 1007.33391 37.8557813 1008.01058 36.3529688 1008.34891 34.5982292 1008.34891 32.5915625 1008.34891 30.5848958 1008.01058 28.8372656 1007.33391 27.3486719 1006.65725 25.8600781 1005.70058 24.7027083 1004.46391 23.8765625 1003.22725 23.0504167 1001.75506 22.6373438 1000.04735 22.6373438 998.367352 22.6373438 996.897352 23.0433073 995.637352 23.8552344 994.377352 24.6671615 993.404279 25.8176042 992.718134 27.3065625 992.031988 28.7955208 991.688915 30.5571875 991.688915 32.5915625 991.688915 34.6259375 992.031988 36.3945312 992.718134 37.8973438 993.404279 39.4001563 994.377352 40.557526 995.637352 41.3694531 996.897352 42.1813802 998.367352 42.5873438 1000.04735 42.5873438Z" transform="translate(90.744 420.618)"/></g></svg>