<svg xmlns="http://www.w3.org/2000/svg" xmlns:xlink="http://www.w3.org/1999/xlink" width="214" height="146" viewBox="0 0 214 146"><defs><path id="a" d="M151.25,108.87 C161.28,108.87 169.4,116.99 169.4,127.02 C169.4,136.915394 161.486751,144.95171 151.652379,145.165628 L151.249711,145.163 Z"/><path id="b" d="M151.25,36.28 C161.28,36.28 169.4,44.4 169.4,54.43 C169.4,64.46 161.27,72.58 151.25,72.58 Z"/><path id="c" d="M18.15,72.59 L18.15,108.88 C8.12,108.88 3.55271368e-15,100.75 3.55271368e-15,90.73 L3.55271368e-15,90.74 C3.55271368e-15,80.71 8.13,72.59 18.15,72.59 Z"/><path id="d" d="M18.15,0.01 L18.15,36.3 C8.12,36.3 3.55271368e-15,28.17 3.55271368e-15,18.15 L3.55271368e-15,18.16 C3.55271368e-15,8.13 8.13,0.01 18.15,0.01 Z"/></defs><g fill="none" fill-rule="evenodd"><path fill="#FFF" fill-rule="nonzero" d="M37.54 7.12C39.64 7.12 41.48 7.59 43.06 8.52 44.64 9.46 45.87 10.77 46.76 12.47 47.65 14.17 48.09 16.16 48.09 18.44 48.09 20.7 47.64 22.68 46.75 24.38 45.85 26.08 44.61 27.39 43.03 28.33 41.45 29.26 39.62 29.73 37.54 29.73 35.46 29.73 33.63 29.26 32.05 28.31 30.47 27.37 29.23 26.05 28.35 24.35 27.46 22.65 27.02 20.7 27.02 18.44 27.02 16.18 27.47 14.2 28.35 12.5 29.23 10.81 30.47 9.49 32.05 8.54 33.63 7.59 35.44 7.12 37.54 7.12ZM37.55 11.75C36.39 11.75 35.39 12.01 34.54 12.55 33.69 13.09 33.03 13.85 32.57 14.85 32.11 15.84 31.88 17.06 31.88 18.44 31.88 19.82 32.11 21 32.57 22 33.03 23 33.69 23.76 34.54 24.3 35.4 24.83 36.38 25.1 37.55 25.1 38.72 25.1 39.73 24.83 40.57 24.28 41.41 23.74 42.07 22.97 42.53 21.97 42.99 20.98 43.22 19.8 43.22 18.44 43.22 17.07 42.99 15.88 42.53 14.88 42.07 13.89 41.41 13.11 40.57 12.57 39.73 12.02 38.71 11.75 37.55 11.75ZM61.54 7.67C64.03 7.67 65.9 8.19 67.14 9.23 68.39 10.27 69.01 11.86 69.01 14 69.01 16.13 68.37 17.76 67.11 18.87 65.84 19.98 63.99 20.53 61.54 20.53L58.79 20.53 58.79 29.17 53.98 29.17 53.98 7.67ZM61.05 11.99 58.8 11.99 58.8 16.22 61.05 16.22C62.04 16.22 62.81 16.08 63.35 15.79 63.9 15.5 64.17 14.92 64.17 14.06L64.1645949 13.860625C64.125 13.1502083 63.8683333 12.6666667 63.41 12.41 62.9 12.13 62.12 11.99 61.05 11.99Z"/><polygon fill="#FFF" fill-rule="nonzero" points="89 29.18 89 24.86 79.4 24.86 79.4 20.26 88.53 20.26 88.53 15.94 79.4 15.94 79.4 12 89 12 89 7.68 74.56 7.68 74.56 29.18"/><polygon fill="#FFF" fill-rule="nonzero" points="100.16 29.18 100.16 14 98.93 14 108.24 29.18 113.21 29.18 113.21 7.68 108.37 7.68 108.37 22.82 109.63 22.82 100.26 7.68 95.32 7.68 95.32 29.18"/><path fill="#FFF" fill-rule="nonzero" d="M137.51,7.67 C141.11,7.67 143.9,8.62 145.87,10.51 C147.84,12.4 148.83,15.09 148.83,18.59 L148.84,18.59 C148.84,22 147.86,24.62 145.92,26.44 C143.97,28.26 141.16,29.17 137.48,29.17 L131.03,29.17 L131.03,7.67 Z M137.42,12.12 L135.88,12.12 L135.88,24.73 L136.99,24.73 C138.45,24.73 139.7,24.57 140.74,24.24 C141.78,23.91 142.58,23.28 143.13,22.37 C143.68,21.46 143.96,20.14 143.96,18.41 C143.96,16.75 143.69,15.46 143.17,14.54 C142.65,13.62 141.9,12.99 140.92,12.64 C139.94,12.29 138.78,12.12 137.42,12.12 Z"/><polygon fill="#FFF" fill-rule="nonzero" points="157.26 29.18 162.72 14.9 168.11 29.18 173.39 29.18 164.47 7.68 160.93 7.68 151.98 29.18"/><polygon fill="#FFF" fill-rule="nonzero" points="167.07 25.54 165.49 21.22 159.91 21.22 158.4 25.54"/><polygon fill="#FFF" fill-rule="nonzero" points="185.11 29.18 185.11 12 191.37 12 191.37 7.68 173.91 7.68 173.91 12 180.21 12 180.21 29.18"/><polygon fill="#FFF" fill-rule="nonzero" points="197.17 29.18 202.63 14.9 208.03 29.18 213.3 29.18 204.39 7.68 200.84 7.68 191.9 29.18"/><polygon fill="#FFF" fill-rule="nonzero" points="206.98 25.54 205.41 21.22 199.82 21.22 198.31 25.54"/><polygon fill="#FFF" fill-rule="nonzero" points="197.17 29.18 202.63 14.9 208.03 29.18 213.3 29.18 204.39 7.68 200.84 7.68 191.9 29.18"/><polygon fill="#FFF" fill-rule="nonzero" points="180.88 29.18 180.88 12 180.79 12 180.79 7.68 173.91 7.68 173.91 12 180.21 12 180.21 29.18"/><use xlink:href="#a" fill="#FFF"/><rect width="36.32" height="5.2" x="129.696" y="124.411" fill="#FFF" fill-rule="nonzero" transform="rotate(-89.7 147.856 127.01)"/><rect width="36.31" height="4.39" x="123.945" y="124.831" fill="#FFF" fill-rule="nonzero" transform="rotate(-89.7 142.1 127.026)"/><rect width="36.31" height="3.51" x="118.829" y="125.271" fill="#FFF" fill-rule="nonzero" transform="rotate(-89.7 136.984 127.026)"/><rect width="36.3" height="2.43" x="113.958" y="125.806" fill="#FFF" fill-rule="nonzero" transform="rotate(-89.7 132.108 127.02)"/><rect width="36.3" height="2.43" x="108.55" y="125.806" fill="#FFF" fill-rule="nonzero" transform="rotate(-89.7 126.7 127.02)"/><rect width="36.3" height="1.68" x="103.83" y="126.18" fill="#FFF" fill-rule="nonzero" transform="rotate(-89.7 121.98 127.02)"/><rect width="36.3" height="1.68" x="98.15" y="126.18" fill="#FFF" fill-rule="nonzero" transform="rotate(-89.7 116.3 127.02)"/><rect width="36.3" height="1.68" x="92.26" y="126.18" fill="#FFF" fill-rule="nonzero" transform="rotate(-89.7 110.41 127.02)"/><rect width="36.3" height="1.27" x="85.278" y="126.385" fill="#FFF" fill-rule="nonzero" transform="rotate(-89.7 103.428 127.02)"/><rect width="36.3" height="1" x="77.693" y="126.52" fill="#FFF" fill-rule="nonzero" transform="rotate(-89.7 95.843 127.02)"/><rect width="36.29" height="1" x="69.375" y="126.725" fill="#FFF" fill-rule="nonzero" transform="rotate(-89.7 87.52 127.025)"/><rect width="36.29" height="1" x="60.569" y="126.725" fill="#FFF" fill-rule="nonzero" transform="rotate(-89.7 78.713 127.025)"/><use xlink:href="#b" fill="#FFF"/><rect width="36.32" height="5.2" x="129.697" y="51.831" fill="#FFF" fill-rule="nonzero" transform="rotate(-89.7 147.857 54.43)"/><rect width="36.31" height="4.39" x="123.946" y="52.251" fill="#FFF" fill-rule="nonzero" transform="rotate(-89.7 142.101 54.446)"/><rect width="36.31" height="3.51" x="118.84" y="52.681" fill="#FFF" fill-rule="nonzero" transform="rotate(-89.7 136.995 54.436)"/><rect width="36.3" height="2.42" x="113.964" y="53.231" fill="#FFF" fill-rule="nonzero" transform="rotate(-89.7 132.114 54.44)"/><rect width="36.3" height="2.43" x="108.551" y="53.226" fill="#FFF" fill-rule="nonzero" transform="rotate(-89.7 126.7 54.44)"/><rect width="36.3" height="1.68" x="103.841" y="53.6" fill="#FFF" fill-rule="nonzero" transform="rotate(-89.7 121.991 54.44)"/><rect width="36.3" height="1.68" x="98.151" y="53.6" fill="#FFF" fill-rule="nonzero" transform="rotate(-89.7 116.301 54.44)"/><rect width="36.3" height="1.68" x="92.26" y="53.59" fill="#FFF" fill-rule="nonzero" transform="rotate(-89.7 110.41 54.43)"/><rect width="36.3" height="1.27" x="85.279" y="53.805" fill="#FFF" fill-rule="nonzero" transform="rotate(-89.7 103.429 54.44)"/><rect width="36.29" height="1" x="77.699" y="53.945" fill="#FFF" fill-rule="nonzero" transform="rotate(-89.7 95.844 54.445)"/><rect width="36.29" height="1" x="69.376" y="54.145" fill="#FFF" fill-rule="nonzero" transform="rotate(-89.7 87.52 54.445)"/><rect width="36.29" height="1" x="60.57" y="54.135" fill="#FFF" fill-rule="nonzero" transform="rotate(-89.7 78.715 54.435)"/><use xlink:href="#c" fill="#FFF"/><rect width="36.32" height="5.2" x="3.385" y="88.129" fill="#FFF" fill-rule="nonzero" transform="rotate(-89.7 21.545 90.73)"/><rect width="36.31" height="4.39" x="9.145" y="88.539" fill="#FFF" fill-rule="nonzero" transform="rotate(-89.7 27.3 90.734)"/><rect width="36.31" height="3.51" x="14.262" y="88.969" fill="#FFF" fill-rule="nonzero" transform="rotate(-89.7 32.417 90.724)"/><rect width="36.3" height="2.42" x="19.137" y="89.519" fill="#FFF" fill-rule="nonzero" transform="rotate(-89.7 37.287 90.73)"/><rect width="36.3" height="2.42" x="24.555" y="89.519" fill="#FFF" fill-rule="nonzero" transform="rotate(-89.7 42.706 90.73)"/><rect width="36.3" height="1.68" x="29.26" y="89.889" fill="#FFF" fill-rule="nonzero" transform="rotate(-89.7 47.41 90.73)"/><rect width="36.3" height="1.68" x="34.95" y="89.89" fill="#FFF" fill-rule="nonzero" transform="rotate(-89.7 53.1 90.73)"/><rect width="36.3" height="1.68" x="40.841" y="89.89" fill="#FFF" fill-rule="nonzero" transform="rotate(-89.7 58.99 90.73)"/><rect width="36.3" height="1.27" x="48.486" y="90.095" fill="#FFF" fill-rule="nonzero" transform="rotate(-89.7 66.636 90.73)"/><rect width="36.3" height="1" x="55.397" y="90.23" fill="#FFF" fill-rule="nonzero" transform="rotate(-89.7 73.547 90.73)"/><rect width="36.29" height="1" x="63.736" y="90.435" fill="#FFF" fill-rule="nonzero" transform="rotate(-89.7 81.88 90.735)"/><rect width="36.29" height="1" x="72.532" y="90.435" fill="#FFF" fill-rule="nonzero" transform="rotate(-89.7 90.677 90.735)"/><rect width="36.39" height="18.33" x="68.164" y="81.57" fill="#FFF" fill-rule="nonzero" transform="rotate(-89.7 86.36 90.735)"/><rect width="36.32" height="5.2" x="80.669" y="88.13" fill="#FFF" fill-rule="nonzero" transform="rotate(-89.7 98.83 90.73)"/><rect width="36.31" height="4.39" x="86.439" y="88.54" fill="#FFF" fill-rule="nonzero" transform="rotate(-89.7 104.595 90.735)"/><rect width="36.31" height="3.51" x="91.546" y="88.97" fill="#FFF" fill-rule="nonzero" transform="rotate(-89.7 109.701 90.725)"/><rect width="36.3" height="2.43" x="96.427" y="89.515" fill="#FFF" fill-rule="nonzero" transform="rotate(-89.7 114.577 90.73)"/><rect width="36.3" height="2.42" x="101.84" y="89.52" fill="#FFF" fill-rule="nonzero" transform="rotate(-89.7 119.99 90.73)"/><rect width="36.3" height="1.68" x="106.555" y="89.891" fill="#FFF" fill-rule="nonzero" transform="rotate(-89.7 124.705 90.73)"/><rect width="36.3" height="1.68" x="112.235" y="89.891" fill="#FFF" fill-rule="nonzero" transform="rotate(-89.7 130.385 90.73)"/><rect width="36.3" height="1.68" x="118.125" y="89.891" fill="#FFF" fill-rule="nonzero" transform="rotate(-89.7 136.276 90.73)"/><rect width="36.3" height="1.27" x="125.781" y="90.096" fill="#FFF" fill-rule="nonzero" transform="rotate(-89.7 143.93 90.73)"/><rect width="36.3" height="1" x="132.692" y="90.231" fill="#FFF" fill-rule="nonzero" transform="rotate(-89.7 150.842 90.73)"/><rect width="36.29" height="1" x="141.02" y="90.436" fill="#FFF" fill-rule="nonzero" transform="rotate(-89.7 159.165 90.736)"/><rect width="36.29" height="1" x="149.826" y="90.426" fill="#FFF" fill-rule="nonzero" transform="rotate(-89.7 167.971 90.726)"/><use xlink:href="#d" fill="#FFF"/><rect width="36.32" height="5.2" x="3.386" y="15.549" fill="#FFF" fill-rule="nonzero" transform="rotate(-89.7 21.546 18.15)"/><rect width="36.31" height="4.39" x="9.136" y="15.959" fill="#FFF" fill-rule="nonzero" transform="rotate(-89.7 27.29 18.154)"/><rect width="36.31" height="3.51" x="14.253" y="16.389" fill="#FFF" fill-rule="nonzero" transform="rotate(-89.7 32.408 18.144)"/><rect width="36.3" height="2.42" x="19.138" y="16.929" fill="#FFF" fill-rule="nonzero" transform="rotate(-89.7 37.288 18.14)"/><rect width="36.3" height="2.42" x="24.556" y="16.939" fill="#FFF" fill-rule="nonzero" transform="rotate(-89.7 42.706 18.15)"/><rect width="36.3" height="1.68" x="29.261" y="17.309" fill="#FFF" fill-rule="nonzero" transform="rotate(-89.7 47.411 18.15)"/><rect width="36.3" height="1.68" x="34.951" y="17.31" fill="#FFF" fill-rule="nonzero" transform="rotate(-89.7 53.1 18.15)"/><rect width="36.3" height="1.68" x="40.842" y="17.31" fill="#FFF" fill-rule="nonzero" transform="rotate(-89.7 58.992 18.15)"/><rect width="36.3" height="1.27" x="48.487" y="17.515" fill="#FFF" fill-rule="nonzero" transform="rotate(-89.7 66.637 18.15)"/><rect width="36.3" height="1" x="55.398" y="17.65" fill="#FFF" fill-rule="nonzero" transform="rotate(-89.7 73.548 18.15)"/><rect width="36.29" height="1" x="63.737" y="17.855" fill="#FFF" fill-rule="nonzero" transform="rotate(-89.7 81.882 18.155)"/><rect width="36.29" height="1" x="72.543" y="17.855" fill="#FFF" fill-rule="nonzero" transform="rotate(-89.7 90.688 18.155)"/><rect width="36.39" height="18.34" x="64.973" y="45.275" fill="#FFF" fill-rule="nonzero" transform="rotate(-89.7 83.168 54.445)"/><rect width="36.32" height="5.2" x="52.543" y="51.84" fill="#FFF" fill-rule="nonzero" transform="rotate(-89.7 70.703 54.44)"/><rect width="36.31" height="4.39" x="46.792" y="52.24" fill="#FFF" fill-rule="nonzero" transform="rotate(-89.7 64.947 54.435)"/><rect width="36.31" height="3.51" x="41.686" y="52.68" fill="#FFF" fill-rule="nonzero" transform="rotate(-89.7 59.84 54.435)"/><rect width="36.3" height="2.42" x="36.81" y="53.24" fill="#FFF" fill-rule="nonzero" transform="rotate(-89.7 54.96 54.45)"/><rect width="36.3" height="2.42" x="31.392" y="53.229" fill="#FFF" fill-rule="nonzero" transform="rotate(-89.7 49.542 54.44)"/><rect width="36.3" height="1.68" x="26.687" y="53.599" fill="#FFF" fill-rule="nonzero" transform="rotate(-89.7 44.837 54.44)"/><rect width="36.3" height="1.68" x="20.997" y="53.599" fill="#FFF" fill-rule="nonzero" transform="rotate(-89.7 39.147 54.44)"/><rect width="36.3" height="1.68" x="15.106" y="53.599" fill="#FFF" fill-rule="nonzero" transform="rotate(-89.7 33.257 54.44)"/><rect width="36.3" height="1.27" x="8.125" y="53.804" fill="#FFF" fill-rule="nonzero" transform="rotate(-89.7 26.275 54.44)"/><rect width="36.29" height="1" x=".545" y="53.934" fill="#FFF" fill-rule="nonzero" transform="rotate(-89.7 18.69 54.434)"/><rect width="36.29" height="1" x="-7.778" y="54.144" fill="#FFF" fill-rule="nonzero" transform="rotate(-89.7 10.367 54.444)"/><rect width="36.29" height="1" x="-16.584" y="54.144" fill="#FFF" fill-rule="nonzero" transform="rotate(-89.7 1.56 54.444)"/></g></svg>